<svg xmlns="http://www.w3.org/2000/svg" width="20" height="20" viewBox="0 0 20 20">
    <g>
        <path d="M25.077 29.923h3.769a1.077 1.077 0 0 0 1.077-1.077v-3.769A1.077 1.077 0 0 0 28.846 24h-3.769A1.077 1.077 0 0 0 24 25.077v3.769a1.077 1.077 0 0 0 1.077 1.077zm.538-4.308h2.692v2.692h-2.692z" transform="translate(-21 -21)"/>
        <path d="M25.077 59.923h3.769a1.077 1.077 0 0 0 1.077-1.077v-3.769A1.077 1.077 0 0 0 28.846 54h-3.769A1.077 1.077 0 0 0 24 55.077v3.769a1.077 1.077 0 0 0 1.077 1.077zm.538-4.308h2.692v2.692h-2.692z" transform="translate(-21 -43.001)"/>
        <path d="M55.077 29.923h3.769a1.077 1.077 0 0 0 1.077-1.077v-3.769A1.077 1.077 0 0 0 58.846 24h-3.769A1.077 1.077 0 0 0 54 25.077v3.769a1.077 1.077 0 0 0 1.077 1.077zm.538-4.308h2.692v2.692h-2.692z" transform="translate(-42.923 -21)"/>
        <g>
            <path d="M0 0H1.975V1.975H0z" transform="translate(13.049 12.975)"/>
            <path d="M69.975 56.494a.494.494 0 0 0-.493-.494H68v1.975h1.975z" transform="translate(-52.975 -45.001)"/>
            <path d="M56.494 56a.494.494 0 0 0-.494.494v1.482h1.975V56z" transform="translate(-44.927 -45.001)"/>
            <path d="M69.482 69.975a.494.494 0 0 0 .494-.494V68H68v1.975z" transform="translate(-52.975 -53.05)"/>
            <path d="M56 69.482a.494.494 0 0 0 .494.494h1.482V68H56z" transform="translate(-44.927 -53.05)"/>
        </g>
    </g>
</svg>
