<svg xmlns="http://www.w3.org/2000/svg" id="img-car-repair-01" width="114" height="321" viewBox="0 0 114 321">
    <defs>
        <style>
            .cls-2{fill:#bfbfbf}.cls-3{fill:#707070}
        </style>
    </defs>
    <path id="사각형_19630" fill="none" d="M0 0H114V321H0z"/>
    <g id="그룹_45087" transform="translate(-1243.55 -34.109)">
        <g id="그룹_45088" transform="translate(1250.55 39.11)">
            <g id="그룹_45087-2">
                <path id="패스_34368" d="M1316.561 254.047l-.778.218c-3.354.95-7.155 2.015-10.533 1.362-2.656-.527-4.316-2.748-5.793-4.98a51.179 51.179 0 0 0-10.75-12.25 34.9 34.9 0 0 0-9.651-5.5c-2.794-1.042-5.9-2.026-9.479-3.011a.7.7 0 0 1-.527-.687l.16-44.214a117.252 117.252 0 0 0 12.742.6 80.711 80.711 0 0 0 11.494-.916c2.381-.332 4.854-.675 8.4-.882a94.459 94.459 0 0 1 11.449.069c2.682 39.75 3.205 66.814 3.266 70.191z" class="cls-2" transform="translate(-1247.87 -18.174)"/>
                <path id="패스_34369" d="M1346.451 169.062c4 14.837 5.541 79.647.1 100.22-1.912 7.224-7.9 26.389-22.141 48.084l-.034.034c-.481 2.21-.95 5.072-1.294 7.8l-.08.641c-.652 5.163-1.259 10.04-.24 15.421a1.4 1.4 0 0 1 0 1.385c-.893 1.259-6.411 3.824-10.521 2.026a.431.431 0 0 1-.263-.355l-.069-.79a.162.162 0 0 0-.023-.069l-.332-3.332a37.4 37.4 0 0 0-13.761 3.16c-.08.034-8.209 3.8-9.777 4.889-.023.023-.057.011-.08.023s-.011.011-.011.023c-.069.034-6.01 3.3-10.029-.721a.472.472 0 0 1-.08-.126l-1.305-2.771c-1.477.355-7.064 1.523-10.269-.9a6.041 6.041 0 0 1-2.244-5.129 115.184 115.184 0 0 0-1.271-14.185 64.991 64.991 0 0 1-.687-6.629 3.343 3.343 0 0 1 .115-1.03 26.962 26.962 0 0 1 4.556-7.739.243.243 0 0 1 .069-.046l.034-.034a.036.036 0 0 1 .023-.011.29.29 0 0 1 .08-.023.334.334 0 0 1 .1-.023c.011 0 .023-.011.034-.011.137.011 13.979.218 22.611-8.22 4.6-4.5 6.938-10.659 6.938-18.306a25.993 25.993 0 0 0-11.288-21.432c-8.2-5.324-19.772-4.568-19.886-4.557l-1.179.08a.444.444 0 0 1-.469-.4c0-.023.011-.046.011-.069s-.011-.057-.011-.092V128.66a.425.425 0 0 1 .424-.435c29.789 0 33.006-18.008 33.006-25.759 0-15.089-10.315-21.8-16.463-24.454-4.625-2-16.326-1.236-16.44-1.236a.428.428 0 0 1-.321-.114l-2.6-2.381a.426.426 0 0 1-.149-.321V52.173c.011-.538.309-13.063 7-13.063.492 0 .939.492 1.317 1.133a.423.423 0 0 1 .424-.424h13.724c4.259 0 6.411.343 6.7 2.107 2.805-.16 15.811.1 22.233 17.78.069.149 6.228 14.78 6.445 52.526.366.6.744 1.191 1.156 1.786v.023c.011.011.011.011.023.011 1.729 3.286 3.457 6.526 5.152 9.708 9.582 17.974 17.86 33.487 21.042 45.302zm.447 42.772c.332 18.386.069 27.614-1.1 39.5a107.764 107.764 0 0 1-3.9 20.378 1.011 1.011 0 0 1 .847-.195c.71.183 1.271 1.271 1.58 2.381.607-1.935 1.065-3.572 1.408-4.831 5.736-21.729 3.469-86.493-.1-99.774-3.16-11.723-11.414-27.2-20.974-45.13-1.694-3.171-3.423-6.4-5.152-9.685-.149-.218-.275-.435-.412-.653 0 2.622-.023 5.335-.08 8.174v.011c8.255 12.273 23.469 42.726 25.1 53.476.114.71.229 1.42.366 2.187.791 4.646 2.005 11.664 2.419 34.161zm-1.958 39.406c1.179-11.838 1.431-21.054 1.1-39.383-.011-.733-.034-1.454-.046-2.152a.654.654 0 0 1-.149-.011c-1.076-.275-2.29-.561-3.56-.847v2.129c.023 30.716.034 54.953-24 64.764a.41.41 0 0 1-.206.023l-.939.263a31.85 31.85 0 0 1-8.518 1.6 12.164 12.164 0 0 1-2.416-.229c-2.977-.584-4.831-3.068-6.343-5.346A50.23 50.23 0 0 0 1289.3 260a34.007 34.007 0 0 0-7.041-4.362c-.767-.355-1.568-.687-2.381-1-2.759-1.03-5.839-2.015-9.4-2.988a1.557 1.557 0 0 1-1.156-1.523l.16-44.4a.44.44 0 0 1-.1-.286v-.041a.472.472 0 0 1 .1-.229l.263-69.55a.438.438 0 0 1 .412-.435 63.189 63.189 0 0 0 23.332-5.346c12.307-5.747 16.772-5.221 17.791-4.946a.427.427 0 0 1 .412.126c.069.092 2.576 3.08 6.09 7.911.344-7.464.469-14.253.435-20.436-6.262-10.155-7.567-19.211-8.941-28.759a143.274 143.274 0 0 0-2.564-14.242c-12.983-13.109-17.173-26.835-17.219-26.973l-.137-.481.206-.023c-.183-.859-1.305-1.305-5.427-1.339v1.592a.433.433 0 0 1-.435.424h-13.738a.27.27 0 0 1-.092-.023c-.023 0-.046-.011-.069-.011s-.046-.034-.069-.046-.046-.034-.069-.057-.023-.034-.046-.057-.034-.057-.046-.08v-.011a5.565 5.565 0 0 0-1.351-2.439c-5.839 0-6.125 12.09-6.125 12.216v21.58c.538.481 1.9 1.74 2.336 2.141 1.58-.092 12.112-.641 16.657 1.317 6.343 2.748 16.978 9.663 16.978 25.244 0 7.968-3.286 26.435-33.43 26.618V255.51l.733-.046a41.579 41.579 0 0 1 15.9 2.416 24.172 24.172 0 0 1 4.511 2.278 26.868 26.868 0 0 1 11.677 22.153c0 7.888-2.416 14.253-7.2 18.924-7.716 7.545-19.428 8.369-22.473 8.449 4.568 7.773 9.353 22.725 9.376 34.311l1.4 2.942c3.16 3.1 7.716 1.133 8.735.641l.034.011c-.16-2.851-1.1-28.564 16.326-31.312a.115.115 0 0 1 .034-.011c.527-.046 6.125-.618 8.724.011a.441.441 0 0 1 .332.447c-.011.126-.721 9.777-.721 17.012a48.635 48.635 0 0 0 .252 5.69.34.34 0 0 1 .092.229l.321 3.114c0 .023.023.057.023.092l.1 1.122c3.789 1.454 8.621-.95 9.25-1.832.126-.183-.286-1.03-.641-1.775a25.013 25.013 0 0 1-2.725-11.723c0-8.369 4.259-19.955 6.319-24.259l.011-.011a54.242 54.242 0 0 1 4.373-8.792c1.2-2.072 2.564-4.442 4.27-7.739 1.946-3.767 3.434-7.018 4.625-9.628.675-1.454 1.225-2.645 1.694-3.618 2.25-5.919 4.093-14.62 4.952-23.367zm1.03-42.405c-.447-20.046-1.58-26.606-2.347-31-.137-.778-.252-1.5-.366-2.21-1.568-10.372-15.948-39.314-24.282-52.114-.08 3.354-.206 6.846-.378 10.51l-.034-.011c7.121 9.937 17.745 26.618 21.58 42.44 1.751 7.247 2.129 21.077 2.141 31.518 1.328.294 2.565.58 3.686.866zm-2.21 66.836a.367.367 0 0 1-.034-.16c-.034-1.511-.836-3.068-1.2-3.16-.309-.08-.973 1.065-1.752 2.633a.563.563 0 0 1-.046.126.38.38 0 0 1-.069.115c-.5 1.03-1.053 2.221-1.568 3.354-1.2 2.622-2.7 5.885-4.659 9.674-1.717 3.309-3.08 5.678-4.282 7.773a48.274 48.274 0 0 0-5.095 10.888 24.582 24.582 0 0 0-.63 8.415c0 .149.011.275.011.412a175.407 175.407 0 0 0 19.325-40.07zm-25.21-.973c22.909-9.743 22.909-33.647 22.874-63.722v-2.313c-4.373-.927-9.617-1.832-14.849-2.542-3.606-.492-7.281-.985-11.277-1.271 2.602 38.776 3.173 65.474 3.253 69.85zm22.874-66.917c-.011-10.372-.389-24.008-2.118-31.14-5.347-22.061-24.053-45.874-27.671-50.328l-1.843 11.792c.046.3 3.7 40.207 5.381 64.97.023.309.046.607.057.9 4.076.3 7.808.79 11.471 1.294 5.176.703 10.362 1.596 14.724 2.512zm-17.814 109.07c0-.446-.023-.927-.046-1.477-.046-.859-.092-1.843-.092-2.874 0-.744.034-1.523.1-2.3-1.923 5.346-4.018 12.754-4.018 18.455a23.8 23.8 0 0 0 1.958 9.834c-.1-1.1-.16-2.187-.16-3.251a74.413 74.413 0 0 1 .8-9.514l.08-.641c.361-2.897.876-5.965 1.379-8.232zm-6.7-41.65l.778-.218c-.057-3.377-.584-30.442-3.263-70.191a94.459 94.459 0 0 0-11.449-.069c-3.549.206-6.022.55-8.4.882a80.711 80.711 0 0 1-11.494.916 117.252 117.252 0 0 1-12.742-.6l-.16 44.214a.7.7 0 0 0 .527.687c3.583.985 6.686 1.969 9.479 3.011a34.9 34.9 0 0 1 9.651 5.5 51.179 51.179 0 0 1 10.75 12.25c1.477 2.232 3.137 4.453 5.793 4.98 3.379.653 7.18-.412 10.534-1.363zm1.294-164.412c-.355-36.464-6.3-50.591-6.365-50.763-3.526-9.7-9.021-13.876-13.166-15.684l1.8 6.377c6.766 12.834 8.231 23.034 9.651 32.892 1.306 9.067 2.566 17.676 8.084 27.178zm-3.835 93.134c-.023-.263-.034-.515-.057-.79-1.683-24.752-5.335-64.661-5.369-65.05l1.923-12.4c-1.088-.206-5.518-.435-17.012 4.934a64.177 64.177 0 0 1-23.252 5.415l-.263 69.035a116.365 116.365 0 0 0 12.731.6 77.529 77.529 0 0 0 11.38-.916c2.4-.332 4.9-.675 8.472-.87a94.716 94.716 0 0 1 11.451.042zm-2.969 135.344c-.653-5.816.286-19.7.469-22.222a17.289 17.289 0 0 0-2.931-.195c-2.152 0-4.4.195-5 .263-1.076 1.248-10.258 12.513-8.048 26.114.859-.4 1.465-.675 1.546-.721a38.532 38.532 0 0 1 13.964-3.239zm-5.118-271.478a79.243 79.243 0 0 0-6.583-16.715.042.042 0 0 1-.011-.034.06.06 0 0 1-.023-.046l-1.946-6.892c0-.034-.011-.069-.011-.114 0-.011.011-.011.011-.023a18.482 18.482 0 0 0-7.224-1.191 72.625 72.625 0 0 0 15.783 25.015zm-11.212 275.828c-2.152-12.513 5.117-23.115 7.556-26.263-14.8 3.423-14.631 25.45-14.459 29.72 1.545-.892 4.705-2.415 6.903-3.457zm-11.792-301.782v-1.157h-12.868v1.156zm-6.972 301.931c-.092-11.46-4.82-26.171-9.319-33.75a25.115 25.115 0 0 0-4.018 6.972c-.24.744.172 3.927.618 7.293a118.554 118.554 0 0 1 1.271 14.288 5.22 5.22 0 0 0 1.9 4.442c2.874 2.175 8.197 1.076 9.548.755z" class="cls-3" transform="translate(-1249.002 -39.11)"/>
                <path id="패스_34370" d="M1334.586 190c.034 30.075.034 53.98-22.874 63.722-.08-4.373-.653-31.071-3.251-69.847 4 .286 7.671.778 11.277 1.271 5.232.71 10.475 1.614 14.849 2.542z" class="cls-2" transform="translate(-1242.162 -18.14)"/>
                <path id="패스_34371" d="M1333.164 165.608c1.729 7.132 2.106 20.768 2.118 31.14-4.362-.916-9.548-1.809-14.723-2.507-3.664-.5-7.4-1-11.471-1.294-.011-.3-.034-.6-.057-.9-1.683-24.763-5.335-64.673-5.381-64.97l1.843-11.792c3.618 4.448 22.325 28.261 27.671 50.323zm-15.9-24.992a17.567 17.567 0 0 0-3.011-10.67c-1.408-2.187-3.595-4.637-5.163-4.385-2.679.446-3.045 6.274-3.045 12.49 0 2.061 1.294 2.668 2.667 3.309a11.2 11.2 0 0 1 1.946 1.076 12.831 12.831 0 0 1 3.5 3.9.417.417 0 0 0 .572.172c.105-.054 2.532-1.393 2.532-5.892z" class="cls-2" transform="translate(-1242.859 -28.077)"/>
                <path id="패스_34372" d="M1313.949 128.647a17.567 17.567 0 0 1 3.011 10.67c0 4.5-2.427 5.839-2.53 5.9a.417.417 0 0 1-.572-.172 12.831 12.831 0 0 0-3.5-3.9 11.2 11.2 0 0 0-1.946-1.076c-1.374-.641-2.667-1.248-2.667-3.309 0-6.217.366-12.044 3.045-12.49 1.564-.26 3.75 2.19 5.159 4.377zm.412 15.559c.584-.5 1.74-1.889 1.74-4.888a16.819 16.819 0 0 0-2.874-10.212c-1.786-2.759-3.549-4.121-4.293-4-2.336.389-2.336 8.861-2.336 11.643 0 1.511.813 1.889 2.175 2.53a12.772 12.772 0 0 1 2.072 1.145 13.515 13.515 0 0 1 3.516 3.782z" class="cls-3" transform="translate(-1242.556 -26.778)"/>
                <path id="패스_34373" d="M1313.164 192.189c.023.275.034.527.057.79a94.716 94.716 0 0 0-11.448-.046c-3.572.195-6.068.538-8.472.87a77.529 77.529 0 0 1-11.38.916 116.365 116.365 0 0 1-12.731-.6l.263-69.035a64.177 64.177 0 0 0 23.252-5.415c11.494-5.369 15.925-5.14 17.012-4.934l-1.923 12.4c.035.393 3.687 40.303 5.37 65.054z" class="cls-2" transform="translate(-1247.85 -28.167)"/>
                <path id="패스_34374" d="M1272.92 75.04a22.37 22.37 0 1 1-22.37 22.37 22.4 22.4 0 0 1 22.37-22.37zm21.512 22.37a21.512 21.512 0 1 0-21.512 21.512 21.537 21.537 0 0 0 21.512-21.512z" class="cls-3" transform="translate(-1250.55 -33.906)"/>
                <path id="패스_34375" d="M1272.92 232.4a22.365 22.365 0 1 1-22.37 22.359 22.392 22.392 0 0 1 22.37-22.359zm21.512 22.359a21.512 21.512 0 1 0-21.512 21.512 21.528 21.528 0 0 0 21.512-21.512z" class="cls-3" transform="translate(-1250.55 -11.112)"/>
                <path id="패스_34376" d="M1271.825 82.6a13.715 13.715 0 1 1-13.715 13.715 13.73 13.73 0 0 1 13.715-13.715zm12.845 13.715a12.851 12.851 0 1 0-12.845 12.857 12.865 12.865 0 0 0 12.846-12.857z" class="cls-3" transform="translate(-1249.455 -32.81)"/>
                <path id="패스_34377" d="M1271.825 239.96a13.71 13.71 0 1 1-13.715 13.7 13.72 13.72 0 0 1 13.715-13.7zm12.845 13.7a12.851 12.851 0 1 0-12.845 12.857 12.855 12.855 0 0 0 12.846-12.853z" class="cls-3" transform="translate(-1249.455 -10.017)"/>
                <path id="패스_34378" d="M1278.33 53.416a33.8 33.8 0 0 1 0 6.457c0 .023-.011.034-.011.057s-.011.057-.023.092-.034.034-.046.057-.034.046-.057.069a.239.239 0 0 1-.069.046c-.023.011-.046.034-.069.034s-.057.011-.08.023-.046.011-.069.011h-.16a16.347 16.347 0 0 1-4.98-.607 14.967 14.967 0 0 1-5.53-3.389.514.514 0 0 1-.092-.126.011.011 0 0 0-.011-.011.9.9 0 0 1-.023-.172v-.011c.023-.721.046-1.511.069-2.278.034-1.534.08-2.977.149-3.973.309-4.179.847-5.106 1.374-5.7 1.019-1.156 6.812-.263 7.155-.172.011 0 .011.011.023.011a.184.184 0 0 1 .08.046.24.24 0 0 1 .069.046.115.115 0 0 1 .046.057.233.233 0 0 1 .046.069c.011.011.023.023.023.034a34.6 34.6 0 0 1 2.186 9.33zm-.824 5.988a33.5 33.5 0 0 0-2.095-14.8c-1.282-.24-5.575-.584-6.056-.046-.446.5-.893 1.477-1.167 5.2-.069.985-.115 2.416-.149 3.938l-.069 2.084a14.1 14.1 0 0 0 5.072 3.068 15.209 15.209 0 0 0 4.463.552z" class="cls-3" transform="translate(-1248.151 -38.488)"/>
            </g>
        </g>
    </g>
</svg>
