<svg xmlns="http://www.w3.org/2000/svg" id="img_mypage_eco_48" width="48" height="48" viewBox="0 0 48 48">
    <defs>
        <linearGradient id="linear-gradient" x1=".067" x2=".933" y1=".25" y2=".75" gradientUnits="objectBoundingBox">
            <stop offset="0" stop-color="#ebf7cc"/>
            <stop offset="1" stop-color="#c4f285"/>
        </linearGradient>
        <style>
            .cls-4{fill:#d9f89e}
        </style>
    </defs>
    <g id="img_mypage_vip">
        <path id="패스_34288" fill="#bbe36f" d="M24 0A24 24 0 1 1 0 24 24 24 0 0 1 24 0z"/>
        <text id="ECO" fill="#446911" font-family="NotoSansCJKkr-Bold, Noto Sans CJK KR" font-size="9px" font-weight="700" letter-spacing="-0.024em" transform="translate(24 34)">
            <tspan x="-8.797" y="0">ECO</tspan>
        </text>
        <g id="그룹_43296" transform="translate(16 8)">
            <path id="패스_37369" d="M-13700.506 5940.971l-1.094 1.336.244 2.064 1.242 1.023 1.667.166 1.356-1.3.743-1.1.729-3.187v-.505l-2.828.505z" class="cls-4" transform="translate(13709.866 -5934.491)"/>
            <path id="패스_37370" d="M-13696.711 5940.971l1.093 1.336-.244 2.064-1.242 1.023-1.667.166-1.356-1.3-.742-1.1-.729-3.187v-.505l2.828.505z" class="cls-4" transform="translate(13703.2 -5936.491)"/>
            <path id="패스_37428" fill="#446911" d="M-247.284 311.472h-.041a8.66 8.66 0 0 0-5.763 1.942 2.922 2.922 0 0 0-.3.311v-.008a2.925 2.925 0 0 0-.97-2.12 8.625 8.625 0 0 0-5.8-1.932.6.6 0 0 0-.563.6c0 .153.022 3.769 1.955 5.781a3.062 3.062 0 0 0 2.2.936 3.167 3.167 0 0 0 1.436-.347 9.385 9.385 0 0 1 1.086 4.621.6.6 0 0 0 .567.625h.029a.608.608 0 0 0 .6-.615 11.144 11.144 0 0 1 .347-2.918 3.234 3.234 0 0 0 1.641.445 3.04 3.04 0 0 0 2.168-.932c1.953-2.025 1.975-5.63 1.975-5.779a.6.6 0 0 0-.567-.61zm-2.166 5.453l-.091.093a1.861 1.861 0 0 1-1.341.565 1.964 1.964 0 0 1-1.218-.426 4.532 4.532 0 0 1 .9-1.424.6.6 0 0 0-.011-.844.607.607 0 0 0-.817-.013 5.218 5.218 0 0 0-.785 1.029 2.034 2.034 0 0 1-.025-.367 1.717 1.717 0 0 1 .547-1.236 7.443 7.443 0 0 1 4.349-1.646 7.953 7.953 0 0 1-1.508 4.269zm-4.55-.759q-.077-.148-.16-.293c.038-.044.075-.089.111-.136a3.184 3.184 0 0 0 .049.429zm-2.857-2.813a.592.592 0 0 0-.345.3.6.6 0 0 0 .189.759 5.608 5.608 0 0 1 1.253 1.207 2 2 0 0 1-.813.161h-.005a1.85 1.85 0 0 1-1.32-.565 7.607 7.607 0 0 1-1.591-4.357 7.391 7.391 0 0 1 4.341 1.635 1.725 1.725 0 0 1 .569 1.256 2 2 0 0 1-.279 1.065 6.58 6.58 0 0 0-1.543-1.423.6.6 0 0 0-.456-.038z" transform="translate(261.651 -307.257)"/>
        </g>
    </g>
    <path id="패스_35533" fill="url(#linear-gradient)" d="M359.1 268.216a22 22 0 1 1 22-22 22.025 22.025 0 0 1-22 22zm0-43.333a21.333 21.333 0 1 0 21.333 21.333 21.357 21.357 0 0 0-21.333-21.333z" transform="translate(-335.1 -222.216)"/>
</svg>
