<svg xmlns="http://www.w3.org/2000/svg" width="210" height="120" viewBox="0 0 210 120">
    <defs>
        <clipPath id="clip-path">
            <path id="패스_38933" d="M0 0h210v120H0z" class="cls-1" transform="translate(1075.529 29.516)"/>
        </clipPath>
        <style>
            .cls-1{fill:#bfbfbf}
        </style>
    </defs>
    <g id="img_basic_none" transform="translate(-1075.529 -29.516)">
        <path id="패스_38932" d="M0 0h210v120H0z" class="cls-1" transform="translate(1075.529 29.516)"/>
        <g id="마스크_그룹_301" clip-path="url(#clip-path)">
            <path id="합치기_28" fill="rgba(255,255,255,0.2)" stroke="#fff" stroke-dasharray="4" stroke-miterlimit="10" d="M-3590.443-3426.708l-.028-1c1.015-12.129 2.957-26.214 7.688-32.566 3.805-5.109 27.772-12.694 28.825-13.549a68.952 68.952 0 0 0 4.637-5.392v-5.088a28.116 28.116 0 0 1-3.172-5.007 23.32 23.32 0 0 1-1.239-5.789c-3.953-1.808-4.431-8.126-4.6-11.666-.083-1.768.783-1.892 1.735-1.518a.446.446 0 0 1 0-.294 28.413 28.413 0 0 1-.3-4.132c0-13.131 6.16-23.776 19.972-23.776 15.322 0 19.972 10.646 19.972 23.776a28.408 28.408 0 0 1-.256 3.819c.29.158.419.325.365.5.814-.215 1.484.06 1.411 1.625-.166 3.539-.644 9.852-4.593 11.664a23.46 23.46 0 0 1-1.237 5.79 28.216 28.216 0 0 1-3.266 5.124v4.971a68.913 68.913 0 0 0 4.636 5.392c1.052.855 25.021 8.44 28.825 13.549 4.732 6.352 6.674 21.438 7.688 33.566z" transform="translate(4717.455 3577.224)"/>
        </g>
    </g>
</svg>
