<svg xmlns="http://www.w3.org/2000/svg" width="48" height="48" viewBox="0 0 48 48">
    <defs>
        <linearGradient id="p5c7qzv6ka" x1=".933" x2=".067" y1=".75" y2=".25" gradientUnits="objectBoundingBox">
            <stop offset="0" stop-color="#4a392b"/>
            <stop offset="1" stop-color="#fdd056"/>
        </linearGradient>
    </defs>
    <g>
        <path fill="#242839" d="M24 0A24 24 0 1 1 0 24 24 24 0 0 1 24 0z"/>
        <g>
            <g fill="#ffd41d">
                <path d="M16.462 14.769a1.384 1.384 0 0 0-1.272 1.93l-1.958.839-1.64-2.948a1.385 1.385 0 1 0-1.339 0l-1.638 2.948-1.958-.838a1.384 1.384 0 1 0-1.272.839A1.418 1.418 0 0 0 5.7 17.5l1.074 4.653v.923a.923.923 0 0 0 .918.924h6.462a.923.923 0 0 0 .923-.923v-.923l1.074-4.654a1.356 1.356 0 0 0 .311.038 1.385 1.385 0 0 0 0-2.769zm-5.538-1.846a.462.462 0 1 1-.462.462.462.462 0 0 1 .461-.462zm-6 3.231a.462.462 0 1 1 .462.462.462.462 0 0 1-.463-.462zm9.231 6.923H7.692v-.923h6.462zm.188-1.846H7.5l-.811-3.512 1.559.668a.922.922 0 0 0 1.17-.4l1.5-2.7 1.5 2.7a.922.922 0 0 0 1.17.4l1.559-.668zm2.119-4.615a.462.462 0 1 1 .462-.462.462.462 0 0 1-.462.461z" transform="translate(16 8) translate(1 1.667) translate(-4 -12)"/>
                <path d="M3074.765 8519.468l-1.885 3.264-2.584-.814.849 4.844v1.384l3.247.348 4.229-.348.3-1.9 1.1-4.323-3.1.814z" opacity="0.6" transform="translate(16 8) translate(1 1.667) translate(-3068.125 -8516.822)"/>
            </g>
        </g>
        <text fill="#fdd056" font-family="NotoSansCJKkr-Bold, Noto Sans CJK KR" font-size="9px" font-weight="700" letter-spacing="-0.024em" transform="translate(24 34)">
            <tspan x="-7.052" y="0">VIP</tspan>
        </text>
    </g>
    <g transform="translate(2 2)">
        <circle cx="22" cy="22" r="22" fill="none"/>
        <path fill="url(#p5c7qzv6ka)" d="M260.379-214.294a22.025 22.025 0 0 1-22-22 22.025 22.025 0 0 1 22-22 22.024 22.024 0 0 1 22 22 22.024 22.024 0 0 1-22 22zm0-43.2a21.224 21.224 0 0 0-21.2 21.2 21.223 21.223 0 0 0 21.2 21.2 21.224 21.224 0 0 0 21.2-21.2 21.225 21.225 0 0 0-21.2-21.201z" transform="translate(-238.379 258.295)"/>
    </g>
</svg>
