<svg xmlns="http://www.w3.org/2000/svg" id="img_mypage_lite" width="56" height="56" viewBox="0 0 56 56">
    <defs>
        <linearGradient id="linear-gradient" x1=".933" x2=".067" y1=".75" y2=".25" gradientUnits="objectBoundingBox">
            <stop offset="0" stop-color="#ffe576"/>
            <stop offset="1" stop-color="#fff8e0"/>
        </linearGradient>
        <style>
            .cls-6{fill:#a16912}
        </style>
    </defs>
    <path id="패스_34288" fill="#ffda3e" d="M28 0A28 28 0 1 1 0 28 28 28 0 0 1 28 0z"/>
    <text id="LITE" fill="#a16912" font-family="NotoSansCJKkr-Bold, Noto Sans CJK KR" font-size="11px" font-weight="700" letter-spacing="-0.024em" transform="translate(28 41)">
        <tspan x="-11.412" y="0">LITE</tspan>
    </text>
    <path id="패스_34291" fill="url(#linear-gradient)" d="M264.046-206.961a25.7 25.7 0 0 1-25.667-25.667 25.7 25.7 0 0 1 25.667-25.672 25.7 25.7 0 0 1 25.666 25.667 25.7 25.7 0 0 1-25.666 25.672zm0-50.4a24.762 24.762 0 0 0-24.733 24.734 24.761 24.761 0 0 0 24.733 24.727 24.761 24.761 0 0 0 24.733-24.733 24.762 24.762 0 0 0-24.733-24.729z" transform="translate(-236.046 260.628)"/>
    <g id="그룹_43297" transform="translate(18.667 9.333)">
        <g id="그룹_43257" transform="translate(3.111 2.333)">
            <path id="패스_37373" fill="#ffeb98" d="M-13611.971 5935.78l-1.751 1.4.253 1.48-.434 2.179-1.222 1.334-1.029 1.384.289 2.387 2.568 1.914 3.634-.908 1.461-1.472 1.488-3.015.31-2.834-.31-1.716-1.488-1.948-2.5-1.4z" opacity="0.605" transform="translate(13616.812 -5934.125)"/>
            <g id="그룹_43292">
                <path id="패스_37429" d="M-227.123 310.36a4.613 4.613 0 0 0-3.387-1.859 4.45 4.45 0 0 0-3.175 1.376 4.527 4.527 0 0 0-.945 1.847 3.778 3.778 0 0 0-.106 1.348 2.381 2.381 0 0 1-.094 1 4.248 4.248 0 0 1-.594 1.2 3.032 3.032 0 0 1-.429.45 3.189 3.189 0 0 0-.539.6 3.99 3.99 0 0 0-.576 2.323 4.41 4.41 0 0 0 1.8 3.533.667.667 0 0 0 .081.051 4.515 4.515 0 0 0 2.132.54 4.16 4.16 0 0 0 .782-.072 5.854 5.854 0 0 0 2.316-.8 8.816 8.816 0 0 0 3.908-7.669 6.044 6.044 0 0 0-1.174-3.868zm-3.45 10.327a4.541 4.541 0 0 1-1.815.623 3.1 3.1 0 0 1-1.991-.295 3.033 3.033 0 0 1-1.19-2.423 2.626 2.626 0 0 1 .346-1.506 1.8 1.8 0 0 1 .3-.324 4.416 4.416 0 0 0 .614-.655 5.628 5.628 0 0 0 .811-1.622 3.763 3.763 0 0 0 .152-1.5 2.411 2.411 0 0 1 .066-.909 3.11 3.11 0 0 1 .625-1.252 3 3 0 0 1 2.084-.917 3.191 3.191 0 0 1 2.315 1.291 4.7 4.7 0 0 1 .9 3.021 7.5 7.5 0 0 1-3.217 6.468z" class="cls-6" transform="translate(236.976 -308.501)"/>
                <path id="패스_37430" d="M-231.432 313.926a.7.7 0 0 0-.624.768 3 3 0 0 1-.152 1.308 3.469 3.469 0 0 1-.544.866.7.7 0 0 0 .077.986.693.693 0 0 0 .455.169.7.7 0 0 0 .532-.245 4.961 4.961 0 0 0 .779-1.252 4.44 4.44 0 0 0 .247-1.977.7.7 0 0 0-.77-.623z" class="cls-6" transform="translate(236.075 -309.706)"/>
            </g>
        </g>
    </g>
</svg>
