<svg xmlns="http://www.w3.org/2000/svg" width="48" height="48" viewBox="0 0 48 48">
    <defs>
        <linearGradient id="2yz50p7p9a" x1=".177" x2=".843" y1=".122" y2=".879" gradientUnits="objectBoundingBox">
            <stop offset="0" stop-color="#e4e7f0"/>
            <stop offset="1" stop-color="#cdd0db"/>
        </linearGradient>
        <linearGradient id="4itotkuw7b" x1=".067" x2=".933" y1=".25" y2=".75" gradientUnits="objectBoundingBox">
            <stop offset="0" stop-color="#fff"/>
            <stop offset="1" stop-color="#d9dbe2"/>
        </linearGradient>
    </defs>
    <path fill="url(#2yz50p7p9a)" d="M24 0A24 24 0 1 1 0 24 24 24 0 0 1 24 0z"/>
    <text fill="#47506a" font-family="NotoSansCJKkr-Bold, Noto Sans CJK KR" font-size="8px" font-weight="700" letter-spacing="-0.024em" transform="translate(24 33.667)">
        <tspan x="-12.948" y="0">SILVER</tspan>
    </text>
    <path fill="url(#4itotkuw7b)" d="M359.1 268.216a22 22 0 1 1 22-22 22.025 22.025 0 0 1-22 22zm0-43.333a21.333 21.333 0 1 0 21.333 21.333 21.357 21.357 0 0 0-21.333-21.333z" transform="translate(-335.1 -222.216)"/>
    <g>
        <path fill="#f0f3fd" d="M517.237 250.611l5.151-6.037 5.157 6.037-5.154 6.1z" transform="translate(16 8) translate(-514.392 -242.367)"/>
        <path fill="#47506a" d="M-284.951 299.667l-5.157-6.037a.481.481 0 0 0-.71 0l-5.151 6.037a.467.467 0 0 0 0 .6l5.154 6.1a.466.466 0 0 0 .357.166.465.465 0 0 0 .356-.166l5.155-6.1a.467.467 0 0 0-.004-.6zm-7.177-.163l1.663-4.526 1.664 4.526zm3.349.933l-1.685 4.579-1.685-4.579zm-4.343-.933h-1.478l2.6-3.049zm-.021.933l1.129 3.067-2.593-3.067zm5.359 0h1.472l-2.607 3.083zm-.021-.933l-1.125-3.059 2.613 3.059z" transform="translate(16 8) translate(298.48 -291.741)"/>
    </g>
</svg>
