<svg xmlns="http://www.w3.org/2000/svg" width="297.277" height="297.277" viewBox="0 0 297.277 297.277">
    <defs>
        <clipPath id="clip-path">
            <path id="사각형_17267" fill="none" d="M0 0H210.206V210.206H0z"/>
        </clipPath>
        <style>
            .cls-8{fill:none}.cls-6,.cls-7{fill-rule:evenodd}.cls-8{stroke-miterlimit:22.926}.cls-6{fill:#1a1818}.cls-7{fill:#252425}.cls-8{stroke:#313133;stroke-width:.216px}
        </style>
    </defs>
    <g id="그룹_44705" transform="rotate(-45 179.422 74.319)">
        <g id="그룹_39630" clip-path="url(#clip-path)">
            <path id="패스_28858" fill="#ffc623" fill-rule="evenodd" d="M172.874 18.768C165.714 10.643 156.511 3.2 144.666.637c-10-2.165-22.1 1.237-30.2 9.442-6.592 6.683-13.438 13.19-19.549 21-4.968-3.062-10.194-4.472-12.051-.142-.478 1.113 8.27 5.63 9.888 5.23.556-.138.93.811 1.349.856a328.518 328.518 0 0 0-37.378 33.425c-4.307.517-7.685 4.938-8.054 8.508-4.677 5.018-8.78 9.281-13.125 14.751-3.456.863-7.888 4.486-11.826 8.086-6.677 6.839-13.657 13.254-19.427 21.119-4.753 6.834-5.373 14.716-2.778 23.888 2.835 10.029 10.061 18.63 17.377 25.946s15.917 14.541 25.945 17.377c9.177 2.6 17.058 1.975 23.893-2.776 7.87-5.767 14.281-12.747 21.119-19.424 3.6-3.937 7.224-8.369 8.086-11.826 5.471-4.345 9.734-8.448 14.751-13.125 3.569-.37 7.991-3.747 8.508-8.055a328.525 328.525 0 0 0 33.428-37.379c.045.42.993.793.856 1.349-.4 1.619 4.116 10.366 5.23 9.889 4.33-1.857 2.92-7.083-.143-12.052 7.808-6.111 14.315-12.957 21-19.549 8.2-8.094 11.607-20.2 9.442-30.2-2.565-11.843-10.007-21.047-18.133-28.207" transform="translate(9.282 9.282)"/>
            <path id="패스_28859" fill="none" stroke="#cbcccc" stroke-miterlimit="22.926" stroke-width="5.669px" d="M172.874 18.768C165.714 10.643 156.511 3.2 144.666.637c-10-2.165-22.1 1.237-30.2 9.442-6.592 6.683-13.438 13.19-19.549 21-4.968-3.062-10.194-4.472-12.051-.142-.478 1.113 8.27 5.63 9.888 5.23.556-.138.93.811 1.349.856a328.518 328.518 0 0 0-37.378 33.425c-4.307.517-7.685 4.938-8.054 8.508-4.677 5.018-8.78 9.281-13.125 14.751-3.456.863-7.888 4.486-11.826 8.086-6.677 6.839-13.657 13.254-19.427 21.119-4.753 6.834-5.373 14.716-2.778 23.888 2.835 10.029 10.061 18.63 17.377 25.946s15.917 14.541 25.945 17.377c9.177 2.6 17.058 1.975 23.893-2.776 7.87-5.767 14.281-12.747 21.119-19.424 3.6-3.937 7.224-8.369 8.086-11.826 5.471-4.345 9.734-8.448 14.751-13.125 3.569-.37 7.991-3.747 8.508-8.055a328.525 328.525 0 0 0 33.428-37.379c.045.42.993.793.856 1.349-.4 1.619 4.116 10.366 5.23 9.889 4.33-1.857 2.92-7.083-.143-12.052 7.808-6.111 14.315-12.957 21-19.549 8.2-8.094 11.607-20.2 9.442-30.2-2.565-11.843-10.007-21.047-18.133-28.207z" transform="translate(9.282 9.282)"/>
            <path id="패스_28860" fill="#e6e7e7" fill-rule="evenodd" d="M172.874 18.768C165.714 10.643 156.511 3.2 144.666.637c-10-2.165-22.1 1.237-30.2 9.442-6.592 6.683-13.438 13.19-19.549 21-4.968-3.062-10.194-4.472-12.051-.142-.478 1.113 8.27 5.63 9.888 5.23.556-.138.93.811 1.349.856a328.518 328.518 0 0 0-37.378 33.425c-4.307.517-7.685 4.938-8.054 8.508-4.677 5.018-8.78 9.281-13.125 14.751-3.456.863-7.888 4.486-11.826 8.086-6.677 6.839-13.657 13.254-19.427 21.119-4.753 6.834-5.373 14.716-2.778 23.888 2.835 10.029 10.061 18.63 17.377 25.946s15.917 14.541 25.945 17.377c9.177 2.6 17.058 1.975 23.893-2.776 7.87-5.767 14.281-12.747 21.119-19.424 3.6-3.937 7.224-8.369 8.086-11.826 5.471-4.345 9.734-8.448 14.751-13.125 3.569-.37 7.991-3.747 8.508-8.055a328.525 328.525 0 0 0 33.428-37.379c.045.42.993.793.856 1.349-.4 1.619 4.116 10.366 5.23 9.889 4.33-1.857 2.92-7.083-.143-12.052 7.808-6.111 14.315-12.957 21-19.549 8.2-8.094 11.607-20.2 9.442-30.2-2.565-11.843-10.007-21.047-18.133-28.207" transform="translate(9.282 9.282)"/>
            <path id="패스_28861" d="M0 81.938C24.32 49.961 48.334 24.093 79.284 0 58.016 30.752 30.923 57.622 0 81.938" class="cls-6" transform="translate(32.036 40.239)"/>
            <path id="패스_28862" d="M1.221 15.569L16.208 1.184a4.216 4.216 0 0 1 5.859 0c5.173 4.983 10.543 9.783 15.517 14.947 5.164 4.974 9.964 10.344 14.947 15.517a4.215 4.215 0 0 1 0 5.859L38.146 52.494a4.125 4.125 0 0 1-5.859 0L1.221 21.427a4.125 4.125 0 0 1 0-5.859" class="cls-6" transform="translate(80.869 75.381)"/>
            <path id="패스_28863" d="M81.938 0C49.961 24.32 24.093 48.334 0 79.284 30.752 58.016 57.622 30.923 81.938 0" class="cls-6" transform="translate(88.05 98.907)"/>
            <path id="패스_28864" d="M15.929 52.132C8.358 44.542 2.581 35.506 0 23.894L23.169 0c4.609 8.153 11.953 16.621 19.791 25.1 8.479 7.838 16.948 15.182 25.1 19.79L44.167 68.061C32.554 65.479 23.518 59.7 15.929 52.132" class="cls-6" transform="translate(26.365 115.782)"/>
            <path id="패스_28865" d="M0 21.27L20.625 0c4.609 8.153 11.952 16.621 19.791 25.1 8.479 7.838 16.948 15.183 25.1 19.791L45.622 64.182a161.854 161.854 0 0 1-28.381-22.916A172.989 172.989 0 0 1 0 21.27" class="cls-7" transform="translate(28.909 115.781)"/>
            <path id="패스_28866" d="M0 21.27L20.625 0c4.609 8.153 11.952 16.621 19.791 25.1 8.479 7.838 16.948 15.183 25.1 19.791L45.622 64.182a161.854 161.854 0 0 1-28.381-22.916A172.989 172.989 0 0 1 0 21.27z" class="cls-8" transform="translate(28.909 115.781)"/>
            <path id="패스_28867" d="M28.147 47.662C19.679 39.311 10.671 31.958 0 26.574L19.187.87c13.221-3.241 26.632 2.7 40.184 15.567C72.236 29.991 78.18 43.4 74.939 56.622L49.235 75.81C43.853 65.138 36.5 56.131 28.147 47.662" class="cls-6" transform="translate(98.89 35.506)"/>
            <path id="패스_28868" d="M28.147 43.181C19.679 34.83 10.671 27.476 0 22.093L16.492 0a166.54 166.54 0 0 1 25.134 20.827C53.749 32.95 63.153 45.655 68.8 56.723l-19.565 14.6C43.853 60.657 36.5 51.65 28.147 43.181" class="cls-7" transform="translate(98.89 39.988)"/>
            <path id="패스_28869" d="M28.147 43.181C19.679 34.83 10.671 27.476 0 22.093L16.492 0a166.54 166.54 0 0 1 25.134 20.827C53.749 32.95 63.153 45.655 68.8 56.723l-19.565 14.6C43.853 60.657 36.5 51.65 28.147 43.181z" class="cls-8" transform="translate(98.89 39.988)"/>
            <path id="패스_28870" fill="#313133" fill-rule="evenodd" d="M.05 1.343C.551.208 4.644-.309 9.191.19s7.829 1.825 7.329 2.961S11.926 4.8 7.379 4.3-.45 2.479.05 1.343M56.9 43.534c-1.136.5-1.652 4.593-1.153 9.14S57.575 60.5 58.711 60s1.652-4.593 1.152-9.141-1.825-7.829-2.96-7.329" transform="translate(138.356 11.796)"/>
            <path id="패스_28871" d="M.05 1.343C.551.208 4.644-.309 9.191.19s7.829 1.825 7.329 2.961S11.926 4.8 7.379 4.3-.45 2.479.05 1.343zM56.9 43.534c-1.136.5-1.652 4.593-1.153 9.14S57.575 60.5 58.711 60s1.652-4.593 1.152-9.141-1.824-7.825-2.963-7.325z" class="cls-8" transform="translate(138.356 11.796)"/>
            <path id="패스_28872" fill="#e50019" fill-rule="evenodd" d="M1.093.318c1.2-1.2 2.895 1.1 3.785 5.145s.64 8.29-.559 9.489S1.424 13.847.534 9.807s-.64-8.289.559-9.489M42.3 52.937c-1.2 1.2 1.1 2.895 5.145 3.785s8.29.64 9.489-.559-1.1-2.9-5.145-3.786-8.289-.64-9.489.56" transform="translate(12.651 140.3)"/>
            <path id="패스_28873" fill="#474c4e" d="M1.093.318c1.2-1.2 2.895 1.1 3.785 5.145s.64 8.29-.559 9.489S1.424 13.847.534 9.807s-.641-8.29.559-9.489zM42.3 52.937c-1.2 1.2 1.1 2.895 5.145 3.785s8.29.64 9.489-.559-1.1-2.9-5.145-3.786-8.289-.64-9.489.56z" transform="translate(12.651 140.3)"/>
        </g>
    </g>
</svg>
