<svg xmlns="http://www.w3.org/2000/svg" id="ico_34_camera_n" width="34" height="34" viewBox="0 0 34 34">
    <defs>
        <style>
            .cls-2{fill:#fff}
        </style>
    </defs>
    <g id="그룹_42052" transform="translate(585.655 -669.567)">
        <path id="패스_31493" d="M-557.488 675.546h-3.438l-1.116-3.275a1.043 1.043 0 0 0-.986-.7h-11.083a1.045 1.045 0 0 0-.988.7l-1.359 3.978a1.038 1.038 0 0 0 .05.8 1.04 1.04 0 0 0 .6.528 1.048 1.048 0 0 0 1.325-.649l1.115-3.275h9.594l1.116 3.275a1.043 1.043 0 0 0 .986.7h4.184a2.926 2.926 0 0 1 2.918 2.917v15.832a2.926 2.926 0 0 1-2.917 2.918h-22.167a2.924 2.924 0 0 1-2.917-2.917v-15.832a2.924 2.924 0 0 1 2.917-2.917h.906a1.064 1.064 0 0 0 .748-.279 1.039 1.039 0 0 0 .33-.725 1.043 1.043 0 0 0-1.007-1.079h-.978a5.013 5.013 0 0 0-5 5v15.833a5.014 5.014 0 0 0 5 5h22.167a5.015 5.015 0 0 0 5-5v-15.834a5.014 5.014 0 0 0-5-4.999z" class="cls-2"/>
        <path id="패스_31494" d="M-561.2 688.463a7.383 7.383 0 0 0-7.375-7.375 7.383 7.383 0 0 0-7.375 7.375 7.383 7.383 0 0 0 7.375 7.375 7.4 7.4 0 0 0 7.375-7.375zm-2.084 0a5.3 5.3 0 0 1-5.291 5.29 5.3 5.3 0 0 1-5.291-5.292 5.253 5.253 0 0 1 1.55-3.741 5.257 5.257 0 0 1 3.741-1.549 5.3 5.3 0 0 1 5.295 5.294z" class="cls-2"/>
    </g>
</svg>
