<svg xmlns="http://www.w3.org/2000/svg" width="149" height="321" viewBox="0 0 149 321">
    <defs>
        <style>
            .cls-1{fill:#bfbfbf}
        </style>
    </defs>
    <g id="img-car-repair-02" transform="translate(.486)">
        <g id="그룹_44948" transform="translate(3.434 5.723)">
            <g id="그룹_44941" transform="translate(0 .001)">
                <g id="그룹_44940">
                    <path id="패스_34318" d="M1405.118 121.53a206.962 206.962 0 0 1 12.868 69.482 117.2 117.2 0 0 0-13.475-3.012c-.08-31.3.389-59.269.4-59.785z" class="cls-1" transform="translate(-1387.396 -26.793)"/>
                    <path id="패스_34319" d="M1407.084 252c-.172.1-.332.195-.492.3-1.511-16.28-1.992-45.233-2.072-71.943a106.984 106.984 0 0 1 13.315 3.011.578.578 0 0 0 .149.023c.034 1.385.057 2.771.08 4.144.069 3.675.1 7.361.126 11.036.023 5.2 0 9.937-.08 14.482-.091 5.724-.252 10.418-.492 14.769a111.067 111.067 0 0 1-1.122 11.849 12.885 12.885 0 0 1-2.633 6.457 29.525 29.525 0 0 1-6.779 5.872z" class="cls-1" transform="translate(-1387.393 -18.272)"/>
                    <path id="패스_34320" d="M1492.948 242.6c5.049 2.576 6.056 8.735 9.01 26.836q.738 4.585 1.694 10.246c-10.155 8.186-28.473 8.025-41.891 7.911-1.568-.023-3.091-.034-4.511-.034s-2.942.011-4.522.034c-13.406.115-31.736.275-41.879-7.911q.945-5.667 1.683-10.246c2.954-18.112 3.961-24.26 9.021-26.847a.361.361 0 0 0 .218-.08c1.534-.527 8.117-.023 15.089.5 6.64.5 14.162 1.076 20.39 1.076s13.738-.572 20.379-1.076c6.812-.515 13.269-1.007 14.986-.538a.449.449 0 0 0 .321.126z" class="cls-1" transform="translate(-1386.476 -9.3)"/>
                    <path id="패스_34321" d="M1498.568 252.79a36.844 36.844 0 0 1-5.392-4.144c-5.518-5.152-6.457-34.025-6.526-65.3a116.8 116.8 0 0 1 13.99-3.1c-.068 26.875-.549 56.138-2.072 72.544z" class="cls-1" transform="translate(-1375.495 -18.288)"/>
                    <path id="패스_34322" d="M1500.251 128.646c.011.515.469 28.141.389 59.2a123.485 123.485 0 0 0-13.99 3.068v-2.759a189.37 189.37 0 0 1 8.266-54.587l5.118-11.849z" class="cls-1" transform="translate(-1375.495 -26.765)"/>
                    <path id="패스_34323" fill="#707070" d="M1515.162 136.894c.7.572 3.16 2.725 3.16 4.35a16.151 16.151 0 0 1-.218 2.6 5.852 5.852 0 0 0 .069 2.656c.275.183.573.378.87.572a.428.428 0 0 1 .229.137c4.156 2.645 10.1 5.873 11.483 5.129.069-.034.218-.114.218-.469 0-2.736 0-5.564-4.328-11.471-3.137-4.282-9.674-7.224-11.7-8.06zm.011 3.744c.011.527.469 28.072.389 59.086 1.408-.206 2.633-.343 3.526-.378-.057-16.749-.321-33.533-.458-43.035-.08-4.454-.126-7.5-.115-8.564-.412-.263-.744-.481-.962-.63a.412.412 0 0 1-.172-.24 6.726 6.726 0 0 1-.126-3.16 15.214 15.214 0 0 0 .206-2.473c0-.87-1.282-2.29-2.37-3.274zm.389 59.968c-.069 27.156-.561 56.8-2.118 73.179a35.208 35.208 0 0 0 5.736 2.8c-.08-3.824-.309-6.972-.538-10.052-.16-2.255-.332-4.591-.435-7.155a233.755 233.755 0 0 1 .195-23.847c.309-6.984.7-15.685.7-30 0-1.775 0-3.549-.011-5.335a34.168 34.168 0 0 0-3.528.41zM1510.8 60.658a1.684 1.684 0 0 1-.962.309c-.034 0-.08-.011-.114-.011.836 3.1 3.847 14.734 4.156 21.707.275 6.365-2.53 25.885-3.79 34.231.641.641 4.683 5.175 4.8 14.494a37.159 37.159 0 0 1 3.675 1.671c.023-4.362.263-10.979.549-18.615.527-14.208 1.191-31.9.492-40.311a32.438 32.438 0 0 0-2.015-9.582c-1.328-3.183-3.961-6.3-7.533-9.182.424 1.007.881 2.175 1.328 3.423a1.587 1.587 0 0 1-.586 1.866zm-2.748 274.595c1.339.3 3.686.6 5.2-.481a4.145 4.145 0 0 0 1.477-3.606v-.011c0-2.37.057-5.335.3-8.151.3-3.538.7-7.774 1.1-10.647a19.672 19.672 0 0 0-1.637 5.232c-.172 1.133-.309 2.164-.447 3.125a54.563 54.563 0 0 1-1.614 8.735 10.87 10.87 0 0 1-4.378 5.804zm-7.339-131.418c.069 31.278 1.008 60.151 6.526 65.3a36.844 36.844 0 0 0 5.392 4.144c1.523-16.406 2-45.668 2.072-72.55a116.8 116.8 0 0 0-13.989 3.105zm0-.9a123.485 123.485 0 0 1 13.99-3.068c.08-31.06-.378-58.686-.389-59.2l-.218-6.926-5.118 11.849a189.37 189.37 0 0 0-8.266 54.587zm-8.4-153.423c-.653 3.87-4.4 31.93 17.081 66.3 1.305-8.77 3.893-27.053 3.629-33.109-.332-7.568-3.9-20.733-4.3-22.164a124.761 124.761 0 0 0-14.849-10.166c-.521-.305-1.036-.591-1.563-.866zm4.144 221.817c5.4 2.782 6.434 9.067 9.434 27.454.527 3.286 1.133 6.949 1.832 11.059l.149.927c1.236 7.247 2.313 13.509-.893 19.692a16.25 16.25 0 0 1-4.786 4.98 15.4 15.4 0 0 1 4.637-.492 9.686 9.686 0 0 0 4.786-5.77 55.036 55.036 0 0 0 1.58-8.575c.126-.962.275-2 .435-3.125a23.041 23.041 0 0 1 3.011-7.934c2.049-7.293 2.187-12.9 2.335-19.394.034-1.385.069-2.828.126-4.328.115-3.148.137-5.873.092-8.312a35.536 35.536 0 0 1-6.354-3.091.429.429 0 0 1-.137-.08 38.467 38.467 0 0 1-6.045-4.568c-5.976-5.575-6.8-36.75-6.8-69.6a190.236 190.236 0 0 1 8.323-54.9l5.862-13.555c-.023-8.461-3.423-12.948-4.419-14.07.126 1.145.194 2.278.24 3.286.447 11.3-2.072 19.2-4.98 28.347a160.982 160.982 0 0 0-4.934 18.077c-.172.882-.343 1.8-.492 2.759a.38.38 0 0 1-.034.275c-.618 4.064-1.042 9.125-1.752 17.482-1.923 22.794-1.66 43.2-1.4 62.933.091 6.699.171 13.614.183 20.518zm-5.863-223.699c1.225.63 2.484 1.282 3.7 1.992a125.709 125.709 0 0 1 15.066 10.315.772.772 0 0 0 .939.023.739.739 0 0 0 .275-.882c-.664-1.866-1.385-3.595-1.9-4.786-6.274-4.671-14.986-8.667-24.534-11.3a8.728 8.728 0 0 0 3.5 3.068c.973.54 1.969 1.055 2.954 1.57zm-30.259-7.991a89.658 89.658 0 0 0-21.8 2.828 6.03 6.03 0 0 1-1.706 2.576 99.85 99.85 0 0 1 47.844-.023 6.1 6.1 0 0 1-1.626-2.313 89.878 89.878 0 0 0-22.712-3.068zM1422.1 339.5c.218 1.649 5.473 4.453 38.238 4.705 32.754-.252 38.009-3.057 38.227-4.705.046-.4.275-1.465.435-2.221-3.927 1.42-16.829 3.8-38.662 3.8s-34.746-2.381-38.662-3.8c.157.756.375 1.821.424 2.221zm.183-169.016a.491.491 0 0 1-.275.114c.653 4.156 1.088 9.239 1.809 17.871 1.912 22.657 1.649 42.921 1.4 62.509-.092 6.56-.172 13.326-.183 20.081 2.049-.378 7.041-.034 14.986.572 6.617.5 14.116 1.076 20.321 1.076s13.693-.572 20.31-1.076c7.888-.6 12.845-.95 14.929-.584 0-6.8-.092-13.624-.183-20.23-.08-6.858-.172-13.784-.172-20.871 0-13.338.321-27.225 1.58-42.142.7-8.335 1.133-13.395 1.74-17.482-1.042-.79-7.728-4.637-37.78-4.637-33.365.003-38.439 4.754-38.485 4.8zm-8.346 138.677c10.143 8.186 28.473 8.025 41.879 7.911 1.58-.023 3.091-.034 4.522-.034s2.942.011 4.511.034c13.418.115 31.736.275 41.891-7.911q-.962-5.667-1.694-10.246c-2.954-18.1-3.961-24.26-9.01-26.836h-.011a.449.449 0 0 1-.321-.126c-1.717-.469-8.174.023-14.986.538-6.64.5-14.151 1.076-20.379 1.076s-13.75-.572-20.39-1.076c-6.972-.527-13.555-1.03-15.089-.5a.361.361 0 0 1-.218.08c-5.06 2.587-6.068 8.735-9.021 26.847q-.743 4.582-1.687 10.244zM1429.974 49.1c.515 2.748 5 31.346-16.8 66.608 4.27-2.381 17.654-8.186 46.722-8.186 18.7 0 31.266 2.484 38.525 4.557a55.376 55.376 0 0 1 10.006 3.789c-11.849-19.131-15.856-36.075-17.1-47.042-1.259-11.117-.046-18.455.195-19.737-.447-.229-.882-.469-1.317-.687-1-.515-1.992-1.042-2.977-1.58l-.481-.275v.011c-.1-.034-9.823-3.572-25.965-3.572s-25.862 3.538-25.954 3.572l-.011-.034c-.172.1-.343.195-.515.3-.984.538-1.981 1.065-2.977 1.58-.447.222-.894.451-1.351.696zm25.851 268.836c-13.383.115-31.609.263-42.051-7.819l-.137.79c-1.214 7.1-2.255 13.223.813 19.154 1.339 2.587 5.106 5.278 6.823 6.136 2.53 1.259 15.868 4.03 39.063 4.03s36.532-2.771 39.051-4.03c1.717-.859 5.484-3.549 6.823-6.136 3.08-5.919 2.026-12.055.813-19.154l-.126-.79c-10.453 8.083-28.679 7.934-42.051 7.819-1.58-.023-3.091-.034-4.511-.034s-2.942.006-4.511.029zm-42.566-264.548c-.378.824-1.408 3.171-2.313 5.69a.773.773 0 0 0 1.214.859 125.7 125.7 0 0 1 15.066-10.315c1.214-.7 2.484-1.362 3.7-1.992 1-.515 1.981-1.03 2.954-1.568a8.268 8.268 0 0 0 3.641-3.343c-9.321 2.461-17.886 6.227-24.262 10.669zm-6.583 146.6a117.2 117.2 0 0 1 13.475 3.012 206.962 206.962 0 0 0-12.868-69.482l-.206 6.686c-.012.514-.477 28.483-.401 59.784zm2.083 72.813c.16-.1.321-.195.492-.3a29.525 29.525 0 0 0 6.778-5.873 12.885 12.885 0 0 0 2.633-6.457 111.068 111.068 0 0 0 1.122-11.849c.24-4.35.4-9.044.492-14.769.08-4.545.1-9.285.08-14.482-.023-3.675-.057-7.361-.126-11.036-.023-1.374-.046-2.759-.08-4.144a.578.578 0 0 1-.149-.023 106.984 106.984 0 0 0-13.315-3.011c.081 26.71.562 55.664 2.073 71.943zm-.252-190.1c-.3 6.686 2.6 27.064 3.5 33.258 12-19.154 16.039-36.2 17.3-47.18a70.982 70.982 0 0 0-.126-19.257c-.515.275-1.03.561-1.523.847a126.071 126.071 0 0 0-14.86 10.155c-.387 1.428-3.959 14.605-4.291 22.176zm-2.667 253.037a12.3 12.3 0 0 0 4.019 5.678c.893.7 18.283 4.682 50.477 4.682.538 0 1.065 0 1.591-.011 31.163-.114 47.992-3.984 48.874-4.671a12.2 12.2 0 0 0 4.018-5.678c0-.172-.023-.675-.046-1.408a4.1 4.1 0 0 1-1.03 1.145c-2.473 1.763-6.514.481-6.949.332-1.946-.286-5.85.813-6.846 1.111-.137.618-.469 2.221-.538 2.7-.149 1.111-1.305 2.4-6.743 3.457-4.923.95-13.338 1.706-30.74 1.981l-1.591.011h-.011c-34.414-.263-38.788-3.24-39.074-5.45-.057-.481-.4-2.084-.538-2.7-1-.3-4.9-1.4-6.846-1.111-.435.149-4.465 1.431-6.949-.332a4.277 4.277 0 0 1-1.03-1.145c-.025.729-.037 1.233-.048 1.405zm-1.305-23.389c.4 2.885.8 7.11 1.1 10.659.24 2.816.3 5.782.3 8.151v.011a4.15 4.15 0 0 0 1.488 3.606c1.511 1.076 3.847.779 5.186.481a10.871 10.871 0 0 1-4.373-5.8 54.577 54.577 0 0 1-1.614-8.735c-.126-.962-.275-1.992-.435-3.125a19.745 19.745 0 0 0-1.652-5.253zm-1.866-35.479c-.218.08-.424.16-.641.229l-.561.252c-.046 2.473-.023 5.243.092 8.472.057 1.5.092 2.942.126 4.328.16 6.491.3 12.1 2.335 19.394a22.791 22.791 0 0 1 3.011 7.934l.447 3.125a53.99 53.99 0 0 0 1.568 8.575 9.6 9.6 0 0 0 4.786 5.77 15.512 15.512 0 0 1 4.648.492 16.158 16.158 0 0 1-4.8-4.98 19.566 19.566 0 0 1-2.106-9.262 63.368 63.368 0 0 1 1.213-10.43l.16-.927c.7-4.11 1.294-7.774 1.82-11.059 2.988-18.329 4.019-24.626 9.388-27.419 0-6.858.092-13.738.183-20.39.252-19.566.515-39.807-1.385-62.418-.893-10.464-1.328-15.707-2.267-20.356a159.038 159.038 0 0 0-4.889-17.929c-2.667-8.369-4.991-15.685-4.991-25.553 0-.836.011-1.694.046-2.576.046-1.122.137-2.4.286-3.686-1.385 1.775-3.778 5.827-3.79 12.811 14.563 37.46 13.658 72.057 13.647 72.4.034 1.443.069 2.9.092 4.362.069 3.686.1 7.361.126 11.036.023 5.209 0 9.96-.08 14.505-.091 5.736-.252 10.441-.492 14.8a116.523 116.523 0 0 1-1.133 11.941 13.711 13.711 0 0 1-2.816 6.869 30.739 30.739 0 0 1-6.972 6.045c-.355.229-.71.435-1.053.653a.466.466 0 0 1-.1.057 35.269 35.269 0 0 1-5.898 2.93zm-.939-.572c.229-.08.435-.16.63-.229a34.012 34.012 0 0 0 5.587-2.748c-1.546-16.268-2.038-45.6-2.118-72.6a38.7 38.7 0 0 0-4.259-.515c-.011 1.786-.011 3.561-.011 5.335 0 14.311.389 23.012.7 30a233.794 233.794 0 0 1 .195 23.847c-.1 2.564-.275 4.9-.435 7.155-.218 3.022-.446 6.114-.527 9.857zm.412-128.087c.023.8-.034 3.354-.1 8.106-.149 9.5-.412 26.286-.469 43.035a39.16 39.16 0 0 1 4.247.492c-.08-31.243.389-59.143.4-59.659l.069-2.2c-1.088.985-2.358 2.4-2.358 3.263a14.011 14.011 0 0 0 .206 2.473 6.725 6.725 0 0 1-.126 3.16.385.385 0 0 1-.183.24c-.335.226-.928.615-1.686 1.085zm.939-83.655a32.077 32.077 0 0 0-2.015 9.582c-.71 8.415-.046 26.1.481 40.311.3 7.854.55 14.654.561 19a43.921 43.921 0 0 1 4.373-2.061l.011-.069c0-9.01 3.732-13.3 4.8-14.345-.962-6.48-3.95-27.339-3.641-34.311s3.32-18.6 4.156-21.707c-.046 0-.08.011-.115.011a1.657 1.657 0 0 1-.962-.309 1.587 1.587 0 0 1-.584-1.866c.6-1.683 1.248-3.286 1.74-4.419-4.226 3.16-7.34 6.627-8.805 10.178zm-1.786 84.193c-3.515 2.164-9.239 5.335-11.071 4.35a1.285 1.285 0 0 1-.664-1.225c0-3.423.32-6.285 4.488-11.975a23.875 23.875 0 0 1 7.247-6 .538.538 0 0 1-.046-.195c0-4.328-.263-11.231-.561-19.222-.366-9.8-.79-21.249-.79-30.19 0-4.053.092-7.579.309-10.224a33.324 33.324 0 0 1 2.072-9.834c5.633-13.567 32.754-25.45 58.056-25.45s52.412 11.884 58.044 25.45a32.962 32.962 0 0 1 2.072 9.834c.71 8.461.046 26.183-.481 40.414-.3 7.888-.549 14.711-.549 19.039 2.69 1.488 5.919 3.641 7.911 6.377 4.179 5.69 4.5 8.552 4.5 11.975a1.285 1.285 0 0 1-.664 1.225c-1.969 1.053-8.4-2.668-11.792-4.8.011 1.362.046 4.167.115 8 .16 10.67.469 30.545.469 49.24 0 14.334-.389 23.035-.7 30.03a235.814 235.814 0 0 0-.195 23.779c.1 2.553.275 4.877.435 7.132a157.728 157.728 0 0 1 .458 19.36c-.057 1.511-.092 2.942-.126 4.328-.16 6.572-.3 12.239-2.381 19.657-.424 1.523-.962 6.1-1.568 13.257a115.413 115.413 0 0 0-.206 12.674.188.188 0 0 1-.011.115 12.554 12.554 0 0 1-4.316 6.205c-1.374 1.133-19.955 4.877-51.015 4.877s-49.653-3.744-51.026-4.877a12.651 12.651 0 0 1-4.316-6.205.352.352 0 0 1-.011-.115 113.913 113.913 0 0 0-.195-12.674c-.607-7.155-1.156-11.735-1.58-13.257-2.084-7.419-2.221-13.086-2.381-19.657-.034-1.385-.069-2.816-.126-4.328-.08-2.221-.115-4.236-.115-6.091 0-5.358.286-9.365.573-13.269.16-2.255.332-4.579.435-7.132a232.468 232.468 0 0 0-.195-23.779c-.309-7-.7-15.7-.7-30.03 0-18.7.309-38.57.481-49.24.059-3.998.104-6.409.116-7.554zm-10.876 3.125c0 .355.149.435.217.469 1.511.813 8.461-3.114 12.582-5.839a5.85 5.85 0 0 0 .069-2.656 14.914 14.914 0 0 1-.218-2.6c0-1.626 2.45-3.778 3.16-4.35l.206-4.557c-2.015.836-8.552 3.778-11.689 8.06-4.327 5.904-4.327 8.732-4.327 11.468z" transform="translate(-1389.56 -38.78)"/>
                </g>
            </g>
            <g id="그룹_44943" transform="translate(22.115 69.597)">
                <g id="그룹_44942">
                    <path id="패스_34324" d="M1506.182 112.163c.447 11.139-2.049 18.97-4.934 28.049a161.29 161.29 0 0 0-4.957 18.169c-.137.71-.275 1.443-.4 2.2-2.107-1.305-10.132-4.557-37.929-4.557-30.8 0-37.723 3.973-38.9 4.889-.1-.584-.206-1.145-.309-1.694a159.243 159.243 0 0 0-4.923-18.02c-2.862-9-5.335-16.784-4.9-27.832a44.446 44.446 0 0 1 .447-4.831c.984-.7 13.555-8.964 47.729-8.964 30.946 0 45.451 6.778 48.76 8.586.144 1.201.259 2.529.316 4.005z" class="cls-1" transform="translate(-1408.876 -99.57)"/>
                </g>
            </g>
        </g>
        <path id="사각형_19631" fill="none" d="M0 0H149V321H0z" transform="translate(-.486)"/>
    </g>
</svg>
