<svg xmlns="http://www.w3.org/2000/svg" width="149" height="321" viewBox="0 0 149 321">
    <defs>
        <style>
            .cls-5{fill:none;stroke:#707070;stroke-width:.75px;stroke-miterlimit:10}
        </style>
    </defs>
    <g id="img-car-repair-05" transform="translate(.486)">
        <path id="사각형_19631" fill="none" d="M0 0H149V321H0z" transform="translate(-.486)"/>
        <g id="그룹_44976" transform="translate(-1607.517 -25.793)">
            <g id="그룹_44978" transform="translate(1611.03 32.41)">
                <g id="그룹_44976-2">
                    <path id="패스_34351" fill="#bfbfbf" d="M1733.606 282.944v-16.179a4.569 4.569 0 0 0-4.57-4.57h-3.108a4.569 4.569 0 0 0-4.57 4.57v16.179a4.569 4.569 0 0 0 4.57 4.57h3.108a4.569 4.569 0 0 0 4.57-4.57zm1.611-15.768v.011l.046.023c-.011-.01-.034-.022-.046-.033zm-105.906 28.245c.011.708.48 17.493 5.473 29.17a2.281 2.281 0 0 0 2.1 1.394 2.436 2.436 0 0 0 .891-.183 2.3 2.3 0 0 0 1.211-3.005c-4.65-10.866-5.107-27.319-5.119-27.491a2.217 2.217 0 0 0-2.331-2.217 2.268 2.268 0 0 0-2.225 2.332zm119.229-162.087c4.159 5.679 4.49 8.535 4.49 11.951a1.269 1.269 0 0 1-.674 1.223c-1.965 1.051-8.386-2.674-11.768-4.8.011 1.371.057 4.159.114 8 .172 10.649.48 30.484.48 49.143 0 2.228-.011 4.319-.034 6.3-.08 10.672-.4 17.779-.674 23.674-.343 7.735-.617 13.837-.194 23.731.114 2.537.286 4.867.446 7.107a160.061 160.061 0 0 1 .457 19.333c-.057 1.5-.091 2.936-.126 4.319-.16 6.547-.3 12.2-2.376 19.618-.423 1.508-.971 6.09-1.577 13.22a113.931 113.931 0 0 0-.194 12.66.391.391 0 0 1-.011.114 12.7 12.7 0 0 1-4.319 6.193c-1.36 1.131-19.915 4.867-50.914 4.867s-49.542-3.736-50.913-4.867a12.7 12.7 0 0 1-4.319-6.193c0-.034-.011-.08-.011-.114a110.834 110.834 0 0 0-.194-12.66c-.605-7.13-1.143-11.711-1.577-13.22-2.079-7.415-2.217-13.071-2.377-19.618-.023-1.383-.068-2.822-.114-4.319-.08-2.217-.114-4.228-.114-6.079 0-5.359.286-9.346.56-13.254.171-2.239.331-4.57.446-7.107.423-9.895.149-16-.194-23.731-.309-6.981-.7-15.665-.7-29.97 0-18.658.309-38.494.469-49.143.068-3.988.114-6.4.114-7.541-3.508 2.159-9.209 5.324-11.037 4.342a1.269 1.269 0 0 1-.674-1.223c0-3.416.331-6.273 4.49-11.951a23.692 23.692 0 0 1 7.233-5.987.385.385 0 0 1-.057-.194c0-4.319-.251-11.209-.548-19.184-.366-9.781-.8-21.206-.8-30.13 0-4.045.091-7.575.308-10.2a32.953 32.953 0 0 1 2.08-9.826c5.61-13.528 32.689-25.4 57.929-25.4s52.319 11.871 57.929 25.4a32.95 32.95 0 0 1 2.079 9.826c.469 5.542.343 15.048.046 24.943-.149 5.2-.343 10.5-.526 15.391-.3 7.872-.548 14.671-.56 19a24.507 24.507 0 0 1 7.906 6.356zm-13.791 162.087a2.283 2.283 0 0 0-2.228-2.331 2.22 2.22 0 0 0-2.342 2.217c-.011.171-.469 16.625-5.107 27.491a2.281 2.281 0 0 0 1.2 3.005 2.485 2.485 0 0 0 .891.183 2.281 2.281 0 0 0 2.1-1.394c4.995-11.678 5.463-28.462 5.486-29.171zm-1.143-177.694v-16.179a4.569 4.569 0 0 0-4.57-4.57h-3.108a4.569 4.569 0 0 0-4.57 4.57v16.179a4.569 4.569 0 0 0 4.57 4.57h3.108a4.569 4.569 0 0 0 4.57-4.57zm-.857 107.289v-44.242a2.908 2.908 0 0 0-.868-2.079 2.957 2.957 0 0 0-5.05 2.079v44.241a2.959 2.959 0 0 0 5.919 0zm-.446-76.187V145.7a1.4 1.4 0 0 0-1.405-1.394h-97.748a1.392 1.392 0 0 0-1.394 1.394v3.131a1.392 1.392 0 0 0 1.394 1.394h97.75a1.4 1.4 0 0 0 1.4-1.397zm0-11.426v-3.131a1.4 1.4 0 0 0-1.405-1.394h-97.748a1.392 1.392 0 0 0-1.394 1.394v3.128a1.392 1.392 0 0 0 1.394 1.394h97.75a1.4 1.4 0 0 0 1.4-1.394zm-10.34-87.133a2.293 2.293 0 0 0-1.44-2.891c-42-14.019-75.719-.526-77.136.057a2.285 2.285 0 0 0 1.737 4.228c.331-.137 33.638-13.414 73.948.057a2.257 2.257 0 0 0 .72.114 2.287 2.287 0 0 0 2.172-1.566zm0 9.141a2.293 2.293 0 0 0-1.44-2.891c-42-14.019-75.719-.526-77.136.057a2.285 2.285 0 0 0 1.737 4.228c.331-.137 33.638-13.414 73.948.057a2.257 2.257 0 0 0 .72.114 2.287 2.287 0 0 0 2.172-1.567zm-4.239 174.5v-61.923a7 7 0 0 0-5.05-6.73 110.1 110.1 0 0 0-61.277.011 6.993 6.993 0 0 0-5.062 6.741v61.882a6.99 6.99 0 0 0 4.947 6.707 104.108 104.108 0 0 0 61.528 0 6.984 6.984 0 0 0 4.914-6.699zm-4.045 84.448v-1.211a1.392 1.392 0 0 0-1.394-1.394h-60.523a1.392 1.392 0 0 0-1.394 1.394v1.211a1.4 1.4 0 0 0 1.394 1.394h60.523a1.4 1.4 0 0 0 1.395-1.4zm0-55.015v-1.211a1.392 1.392 0 0 0-1.394-1.394h-60.523a1.392 1.392 0 0 0-1.394 1.394v1.211a1.4 1.4 0 0 0 1.394 1.394h60.523a1.4 1.4 0 0 0 1.395-1.401zm-4.787 38.219v-22.652a4.072 4.072 0 0 0-4.056-4.056h-45.612a4.064 4.064 0 0 0-4.056 4.056v22.646a4.064 4.064 0 0 0 4.056 4.056h45.612a4.072 4.072 0 0 0 4.056-4.056zm-10.18-193.942V75.543a7.719 7.719 0 0 0-7.712-7.724h-17.939a7.729 7.729 0 0 0-7.724 7.724v32.072a7.719 7.719 0 0 0 7.724 7.712H1691a7.709 7.709 0 0 0 7.712-7.712zm-56.021 175.329v-16.185a4.569 4.569 0 0 0-4.57-4.57h-3.1a4.569 4.569 0 0 0-4.57 4.57v16.179a4.569 4.569 0 0 0 4.57 4.57h3.1a4.569 4.569 0 0 0 4.57-4.57zm0-165.217v-16.185a4.569 4.569 0 0 0-4.57-4.57h-3.1a4.569 4.569 0 0 0-4.57 4.57v16.179a4.569 4.569 0 0 0 4.57 4.57h3.1a4.569 4.569 0 0 0 4.57-4.57zm-5.027 107.289v-44.248a2.965 2.965 0 0 0-2.948-2.948 2.957 2.957 0 0 0-2.959 2.948v44.241a2.954 2.954 0 1 0 5.907 0z" transform="translate(-1611.03 -32.41)"/>
                    <path id="패스_34352" d="M1719.766 237.914l-.046-.023v-.011c.011.011.034.02.046.034z" transform="translate(-1595.533 -3.113)"/>
                </g>
                <g id="그룹_44977">
                    <path id="패스_34353" fill="none" stroke="#707070" stroke-linecap="round" stroke-linejoin="round" stroke-width="0.75px" d="M1748.54 133.334a24.507 24.507 0 0 0-7.907-6.364c.011-4.33.263-11.129.56-19 .183-4.89.377-10.192.526-15.391.3-9.895.423-19.4-.046-24.943a32.95 32.95 0 0 0-2.079-9.826c-5.61-13.528-32.678-25.4-57.929-25.4s-52.319 11.871-57.929 25.4a32.953 32.953 0 0 0-2.08 9.826c-.217 2.628-.308 6.159-.308 10.2 0 8.924.434 20.349.8 30.13.3 7.975.548 14.865.548 19.184a.385.385 0 0 0 .057.194 23.692 23.692 0 0 0-7.233 5.987c-4.159 5.679-4.49 8.535-4.49 11.951a1.269 1.269 0 0 0 .674 1.223c1.828.983 7.53-2.182 11.037-4.342 0 1.143-.046 3.553-.114 7.541-.16 10.649-.469 30.484-.469 49.143 0 14.305.388 22.989.7 29.97.343 7.735.617 13.837.194 23.731-.114 2.537-.274 4.867-.446 7.107-.274 3.908-.56 7.9-.56 13.254 0 1.851.034 3.862.114 6.079.046 1.5.091 2.936.114 4.319.16 6.547.3 12.2 2.377 19.618.434 1.508.971 6.09 1.577 13.22a110.834 110.834 0 0 1 .194 12.66c0 .034.011.08.011.114a12.7 12.7 0 0 0 4.319 6.193c1.371 1.131 19.915 4.867 50.913 4.867s49.554-3.736 50.914-4.867a12.7 12.7 0 0 0 4.319-6.193.391.391 0 0 0 .011-.114 113.931 113.931 0 0 1 .194-12.66c.606-7.13 1.154-11.711 1.577-13.22 2.079-7.415 2.217-13.071 2.376-19.618.034-1.383.069-2.822.126-4.319a160.061 160.061 0 0 0-.457-19.333c-.16-2.239-.331-4.57-.446-7.107-.423-9.895-.149-16 .194-23.731.274-5.9.594-13 .674-23.674.023-1.977.034-4.068.034-6.3 0-18.658-.308-38.494-.48-49.143-.057-3.839-.1-6.627-.114-8 3.382 2.125 9.8 5.85 11.768 4.8a1.269 1.269 0 0 0 .674-1.223c.001-3.408-.329-6.264-4.489-11.943z" transform="translate(-1611.03 -32.41)"/>
                    <path id="패스_34354" fill="none" stroke="#707070" stroke-miterlimit="10" d="M1719.72 237.891v-.011c.011.011.034.023.046.034z" transform="translate(-1595.533 -3.113)"/>
                    <rect id="사각형_19637" width="12.248" height="25.32" class="cls-5" rx="4" transform="translate(110.328 64.567)"/>
                    <rect id="사각형_19638" width="12.237" height="25.32" class="cls-5" rx="4" transform="translate(19.424 64.567)"/>
                    <rect id="사각형_19639" width="12.248" height="25.32" class="cls-5" rx="4" transform="translate(110.328 229.785)"/>
                    <rect id="사각형_19640" width="12.237" height="25.32" class="cls-5" rx="4" transform="translate(19.424 229.785)"/>
                    <path id="패스_34355" d="M1684.223 110.909h-17.939a7.719 7.719 0 0 1-7.724-7.712V71.124a7.729 7.729 0 0 1 7.724-7.724h17.939a7.719 7.719 0 0 1 7.712 7.724V103.2a7.709 7.709 0 0 1-7.712 7.709z" class="cls-5" transform="translate(-1604.253 -27.991)"/>
                    <path id="패스_34356" d="M1728.312 126.259h-97.748a1.392 1.392 0 0 1-1.394-1.394v-3.131a1.392 1.392 0 0 1 1.394-1.394h97.748a1.4 1.4 0 0 1 1.405 1.394v3.131a1.4 1.4 0 0 1-1.405 1.394z" class="cls-5" transform="translate(-1608.444 -19.873)"/>
                    <path id="패스_34357" d="M1712.38 206.869v-44.241a2.957 2.957 0 0 1 5.05-2.079 2.908 2.908 0 0 1 .868 2.079v44.241a2.959 2.959 0 0 1-5.919 0z" class="cls-5" transform="translate(-1596.579 -14.263)"/>
                    <path id="패스_34358" d="M1629.17 206.869v-44.241a2.957 2.957 0 0 1 2.959-2.948 2.965 2.965 0 0 1 2.948 2.948v44.241a2.954 2.954 0 0 1-5.907 0z" class="cls-5" transform="translate(-1608.444 -14.263)"/>
                    <path id="패스_34359" d="M1728.312 136.259h-97.748a1.392 1.392 0 0 1-1.394-1.394v-3.131a1.392 1.392 0 0 1 1.394-1.394h97.748a1.4 1.4 0 0 1 1.405 1.394v3.131a1.4 1.4 0 0 1-1.405 1.394z" class="cls-5" transform="translate(-1608.444 -18.447)"/>
                    <path id="패스_34360" d="M1707.377 236.239h-60.523a1.4 1.4 0 0 1-1.394-1.394v-1.211a1.392 1.392 0 0 1 1.394-1.394h60.523a1.392 1.392 0 0 1 1.394 1.394v1.211a1.4 1.4 0 0 1-1.394 1.394z" class="cls-5" transform="translate(-1606.121 -3.918)"/>
                    <path id="패스_34361" d="M1707.377 284.389h-60.523a1.4 1.4 0 0 1-1.394-1.389v-1.211a1.392 1.392 0 0 1 1.394-1.394h60.523a1.392 1.392 0 0 1 1.394 1.394V283a1.4 1.4 0 0 1-1.394 1.389z" class="cls-5" transform="translate(-1606.121 2.948)"/>
                    <path id="패스_34362" d="M1708.406 224.564a104.108 104.108 0 0 1-61.528 0 6.99 6.99 0 0 1-4.947-6.707v-61.882a6.993 6.993 0 0 1 5.062-6.741 110.1 110.1 0 0 1 61.277-.011 7 7 0 0 1 5.05 6.73v61.917a6.984 6.984 0 0 1-4.914 6.694z" class="cls-5" transform="translate(-1606.624 -16.374)"/>
                    <path id="패스_34363" d="M1699.328 275.358h-45.612a4.064 4.064 0 0 1-4.056-4.056v-22.646a4.064 4.064 0 0 1 4.056-4.056h45.612a4.072 4.072 0 0 1 4.056 4.056V271.3a4.072 4.072 0 0 1-4.056 4.058z" class="cls-5" transform="translate(-1605.522 -2.155)"/>
                    <path id="패스_34364" d="M1634.605 293.456a2.281 2.281 0 0 1-2.1-1.394c-4.993-11.677-5.461-28.462-5.473-29.17a2.268 2.268 0 0 1 2.228-2.331 2.217 2.217 0 0 1 2.331 2.217c.011.171.469 16.625 5.119 27.491a2.3 2.3 0 0 1-1.211 3.005 2.436 2.436 0 0 1-.894.182z" class="cls-5" transform="translate(-1608.749 .12)"/>
                    <path id="패스_34365" d="M1712.955 293.456a2.281 2.281 0 0 0 2.1-1.394c4.993-11.677 5.462-28.462 5.484-29.17a2.283 2.283 0 0 0-2.228-2.331 2.22 2.22 0 0 0-2.342 2.217c-.011.171-.469 16.625-5.107 27.491a2.281 2.281 0 0 0 1.2 3.005 2.485 2.485 0 0 0 .893.182z" class="cls-5" transform="translate(-1596.823 .12)"/>
                    <path id="패스_34366" d="M1715.931 50.758a2.257 2.257 0 0 1-.72-.114c-40.31-13.471-73.616-.194-73.948-.057a2.285 2.285 0 0 1-1.737-4.228c1.417-.583 35.135-14.077 77.136-.057a2.288 2.288 0 0 1-.731 4.456z" class="cls-5" transform="translate(-1607.169 -31.334)"/>
                    <path id="패스_34367" d="M1715.931 58.758a2.257 2.257 0 0 1-.72-.114c-40.31-13.471-73.616-.194-73.948-.057a2.285 2.285 0 0 1-1.737-4.228c1.417-.583 35.135-14.077 77.136-.057a2.288 2.288 0 0 1-.731 4.456z" class="cls-5" transform="translate(-1607.169 -30.194)"/>
                </g>
            </g>
        </g>
    </g>
</svg>
