<svg xmlns="http://www.w3.org/2000/svg" id="img_mypage_eco" width="56" height="56" viewBox="0 0 56 56">
    <defs>
        <linearGradient id="linear-gradient" x1=".067" x2=".933" y1=".25" y2=".75" gradientUnits="objectBoundingBox">
            <stop offset="0" stop-color="#ebf7cc"/>
            <stop offset="1" stop-color="#c4f285"/>
        </linearGradient>
        <style>
            .cls-4{fill:#d9f89e}
        </style>
    </defs>
    <g id="img_mypage_vip">
        <path id="패스_34288" fill="#bbe36f" d="M28 0A28 28 0 1 1 0 28 28 28 0 0 1 28 0z"/>
        <text id="ECO" fill="#446911" font-family="NotoSansCJKkr-Bold, Noto Sans CJK KR" font-size="11px" font-weight="700" letter-spacing="-0.024em" transform="translate(28 41)">
            <tspan x="-10.752" y="0">ECO</tspan>
        </text>
        <g id="그룹_43296" transform="translate(18.667 9.333)">
            <path id="패스_37369" d="M-13700.324 5941.22l-1.275 1.559.285 2.408 1.449 1.193 1.944.194 1.583-1.514.866-1.28.851-3.718v-.589l-3.3.589z" class="cls-4" transform="translate(13711.244 -5933.661)"/>
            <path id="패스_37370" d="M-13695.9 5941.22l1.275 1.559-.285 2.408-1.449 1.193-1.944.194-1.583-1.514-.866-1.28-.851-3.718v-.589l3.3.589z" class="cls-4" transform="translate(13703.467 -5935.994)"/>
            <path id="패스_37428" fill="#446911" d="M-245.045 311.775h-.047a10.1 10.1 0 0 0-6.723 2.266 3.407 3.407 0 0 0-.348.362v-.009a3.413 3.413 0 0 0-1.132-2.473 10.063 10.063 0 0 0-6.765-2.254.7.7 0 0 0-.657.7c0 .178.026 4.4 2.281 6.744a3.573 3.573 0 0 0 2.565 1.092 3.694 3.694 0 0 0 1.675-.405 10.949 10.949 0 0 1 1.267 5.391.7.7 0 0 0 .661.729h.034a.71.71 0 0 0 .7-.717 13 13 0 0 1 .405-3.4 3.773 3.773 0 0 0 1.914.52 3.547 3.547 0 0 0 2.529-1.087c2.278-2.362 2.3-6.568 2.3-6.743a.7.7 0 0 0-.659-.716zm-2.527 6.361l-.106.109a2.171 2.171 0 0 1-1.564.659 2.292 2.292 0 0 1-1.421-.5 5.288 5.288 0 0 1 1.05-1.661.7.7 0 0 0-.013-.985.709.709 0 0 0-.953-.016 6.089 6.089 0 0 0-.915 1.2 2.373 2.373 0 0 1-.029-.428 2 2 0 0 1 .638-1.442 8.683 8.683 0 0 1 5.074-1.92 9.279 9.279 0 0 1-1.761 4.984zm-5.308-.886q-.09-.173-.187-.341c.044-.051.087-.1.129-.159a3.716 3.716 0 0 0 .058.5zm-3.333-3.281a.691.691 0 0 0-.4.346.7.7 0 0 0 .221.885 6.543 6.543 0 0 1 1.462 1.408 2.331 2.331 0 0 1-.949.188h-.006a2.159 2.159 0 0 1-1.54-.659c-1.384-1.44-1.756-3.907-1.856-5.084a8.623 8.623 0 0 1 5.065 1.907 2.013 2.013 0 0 1 .663 1.465 2.333 2.333 0 0 1-.325 1.243 7.676 7.676 0 0 0-1.8-1.66.694.694 0 0 0-.535-.039z" transform="translate(261.807 -306.857)"/>
        </g>
    </g>
    <path id="패스_35533" fill="url(#linear-gradient)" d="M362.767 275.549a25.667 25.667 0 1 1 25.667-25.667 25.7 25.7 0 0 1-25.667 25.667zm0-50.556a24.889 24.889 0 1 0 24.889 24.889 24.917 24.917 0 0 0-24.889-24.888z" transform="translate(-334.766 -221.883)"/>
</svg>
