<svg xmlns="http://www.w3.org/2000/svg" width="56" height="56" viewBox="0 0 56 56">
    <defs>
        <linearGradient id="zxdxhapi4a" x1=".177" x2=".843" y1=".122" y2=".879" gradientUnits="objectBoundingBox">
            <stop offset="0" stop-color="#ffd41d"/>
            <stop offset=".675" stop-color="#fdba4b"/>
            <stop offset="1" stop-color="#fcae61"/>
        </linearGradient>
        <linearGradient id="ernf46vv9b" x1=".933" x2=".067" y1=".75" y2=".25" gradientUnits="objectBoundingBox">
            <stop offset="0" stop-color="#fdc65d"/>
            <stop offset="1" stop-color="#fff1c3"/>
        </linearGradient>
    </defs>
    <circle cx="28" cy="28" r="28" fill="url(#zxdxhapi4a)"/>
    <text fill="#863e09" font-family="NotoSansCJKkr-Bold, Noto Sans CJK KR" font-size="11px" font-weight="700" letter-spacing="-0.024em" transform="translate(28 41)">
        <tspan x="-14.883" y="0">GOLD</tspan>
    </text>
    <path fill="url(#ernf46vv9b)" d="M264.046-206.961a25.7 25.7 0 0 1-25.667-25.667 25.7 25.7 0 0 1 25.667-25.672 25.7 25.7 0 0 1 25.666 25.667 25.7 25.7 0 0 1-25.666 25.672zm0-50.4a24.762 24.762 0 0 0-24.733 24.734 24.761 24.761 0 0 0 24.733 24.727 24.761 24.761 0 0 0 24.733-24.733 24.762 24.762 0 0 0-24.733-24.729z" transform="translate(-236.046 260.628)"/>
    <g>
        <path fill="rgba(255,237,162,0.66)" d="M2683.4 8518.531l-3.863 3.485 7.386 7.9 8.056-8.232-4.419-3.15z" transform="translate(18.667 9.333) translate(-2677.563 -8514.229)"/>
        <path fill="#863e09" d="M-302.936 297.645l-4.583-3.874a.624.624 0 0 0-.4-.146h-6.693a.624.624 0 0 0-.4.146l-4.583 3.874a.625.625 0 0 0-.219.435.619.619 0 0 0 .159.458l7.764 8.572c.009.01.023.014.033.023a.609.609 0 0 0 .133.1.671.671 0 0 0 .061.033.618.618 0 0 0 .227.051h.008a.6.6 0 0 0 .226-.047.607.607 0 0 0 .059-.031.61.61 0 0 0 .135-.095.325.325 0 0 0 .032-.022l8.1-8.572a.621.621 0 0 0 .169-.462.626.626 0 0 0-.228-.443zM-314.9 295.3l.526 2.122h-3.036zm1.808 2.122l-.633-2.553h4.891l-.7 2.553zm3.215 1.244l-1.528 5.564-1.379-5.564zm-4.189 0l1.431 5.776-5.231-5.776zm5.479 0h3.873l-5.462 5.784zm.342-1.244l.586-2.136 2.526 2.136z" transform="translate(18.667 9.333) translate(320.596 -290.358)"/>
    </g>
</svg>
