<svg xmlns="http://www.w3.org/2000/svg" width="56" height="56" viewBox="0 0 56 56">
    <defs>
        <linearGradient id="94oz0er7ha" x1=".933" x2=".067" y1=".75" y2=".25" gradientUnits="objectBoundingBox">
            <stop offset="0" stop-color="#333"/>
            <stop offset="1" stop-color="#888"/>
        </linearGradient>
    </defs>
    <path d="M28 0A28 28 0 1 1 0 28 28 28 0 0 1 28 0z"/>
    <text fill="#888" font-family="NotoSansCJKkr-Bold, Noto Sans CJK KR" font-size="9px" font-weight="700" letter-spacing="-0.024em" transform="translate(28 36.444)">
        <tspan x="-14.08" y="0">BLACK</tspan><tspan x="-9.274" y="9">LIST</tspan>
    </text>
    <path fill="url(#94oz0er7ha)" d="M264.046-206.961a25.7 25.7 0 0 1-25.667-25.667 25.7 25.7 0 0 1 25.667-25.672 25.7 25.7 0 0 1 25.666 25.667 25.7 25.7 0 0 1-25.666 25.672zm0-50.4a24.762 24.762 0 0 0-24.733 24.734 24.761 24.761 0 0 0 24.733 24.727 24.761 24.761 0 0 0 24.733-24.733 24.762 24.762 0 0 0-24.733-24.729z" transform="translate(-236.046 260.628)"/>
    <g>
        <g opacity="0.9">
            <g>
                <path fill="#fff" d="M-2762.192 4708.828v2.141l.221 2.8.766 2.117 2.127 2.127 2.351 1.206a6.948 6.948 0 0 0 1.649-.525c.252-.229 2.062-1.537 2.062-1.537l2.115-3.388-.289-1.923v-3.02l-1.827-.6-1.783-.784-1.607-.9-1.407.9-2.07 1.056z" opacity="0.2" transform="translate(18.667 9.333) translate(3.262 2.235) translate(2762.738 -4705.838)"/>
                <path fill="#a8a8a8" fill-rule="evenodd" d="M7.688.6a1.194 1.194 0 0 1 .969 0 9.756 9.756 0 0 0 4.977 1.928c.489.021.7.257.7.75 0 .311.021 3.577 0 4.755a5.253 5.253 0 0 1-.147 1.267 5.771 5.771 0 0 1-1.6 2.763A19.189 19.189 0 0 1 8.156 14.7a19.889 19.889 0 0 1-4.4-2.635A5.771 5.771 0 0 1 2.158 9.3a5.253 5.253 0 0 1-.149-1.264c-.021-1.178 0-4.444 0-4.755 0-.493.213-.728.7-.75A9.756 9.756 0 0 0 7.688.6zm1.358 6.816l1.53-1.53a.617.617 0 0 0-.876-.873l-1.53 1.53-1.53-1.53a.617.617 0 0 0-.873.873L7.3 7.416l-1.53 1.53a.617.617 0 0 0 .873.873l1.53-1.53L9.7 9.819a.617.617 0 0 0 .873-.873l-1.53-1.53zM7.749 2.04a11.252 11.252 0 0 1-3.66 1.543c-.436.092-.846.131-.846.131s-.006 3.872 0 4.322a4.04 4.04 0 0 0 .115.979 4.546 4.546 0 0 0 1.27 2.179c.368.371 3.543 2.137 3.543 2.137s3.174-1.765 3.543-2.137a4.42 4.42 0 0 0 1.4-3.18V3.722s-.281-.034-.414-.055a10.927 10.927 0 0 1-4.084-1.616 3.967 3.967 0 0 1-.428-.318s-.227.174-.439.306z" transform="translate(18.667 9.333) translate(3.262 2.235) translate(-2 -.5)"/>
            </g>
        </g>
    </g>
</svg>
