<svg xmlns="http://www.w3.org/2000/svg" width="210" height="120" viewBox="0 0 210 120">
    <g>
        <path fill="#bfbfbf" d="M0 0H210V120H0z" transform="translate(-1075.529 -317.326) translate(1075.529 317.326)"/>
        <path fill="#fff" d="M1225.824 407.468a3.515 3.515 0 0 1-.384-.638c-.207-.327-.414-.653-.634-.948a8.128 8.128 0 0 0-1.661-1.55c-5.634-3.759-19.1-4.964-25.314-6.739-5.7-1.629-6.359-9.556-6.365-13.059 12.53-.848 17.831-3.091 18.324-3.866.614-.965-12.626-3.946-8.122-16.871s-2.854-24.8-2.854-24.8l-.023.059c-4.048-6.012-10.527-8.92-17.578-9.054-.086 0-.385-.013-.45-.016s-.364.016-.45.016c-7.051.134-13.529 3.042-17.577 9.054l-.024-.059s-7.358 11.874-2.854 24.8-8.736 15.906-8.122 16.871c.487.766 5.662 2.961 17.851 3.833 0 3.486-.646 11.458-6.364 13.092-6.214 1.775-19.684 2.98-25.317 6.741-.033.024-.07.048-.1.073l-.047.034a7.764 7.764 0 0 0-1.511 1.441c-.218.294-.425.619-.631.946a3.536 3.536 0 0 1-.387.643c-3.833 6.677-5.5 19.062-6.405 29.855h103.4c-.898-10.794-2.568-23.181-6.401-29.858z" transform="translate(-1075.529 -317.326)"/>
    </g>
</svg>
