<svg xmlns="http://www.w3.org/2000/svg" id="img_mypage_smart" width="56" height="56" viewBox="0 0 56 56">
    <defs>
        <linearGradient id="linear-gradient" x1=".067" x2=".933" y1=".25" y2=".75" gradientUnits="objectBoundingBox">
            <stop offset="0" stop-color="#d6efff"/>
            <stop offset="1" stop-color="#a8cff0"/>
        </linearGradient>
        <style>
            .cls-6{fill:#2f4580}
        </style>
    </defs>
    <g id="img_mypage_vip">
        <path id="패스_34288" fill="#91bbf4" d="M28 0A28 28 0 1 1 0 28 28 28 0 0 1 28 0z"/>
        <text id="SMART" fill="#2f4580" font-family="NotoSansCJKkr-Bold, Noto Sans CJK KR" font-size="10px" font-weight="700" letter-spacing="-0.024em" transform="translate(28 40.778)">
            <tspan x="-16.555" y="0">SMART</tspan>
        </text>
        <circle id="타원_1460" cx="25.667" cy="25.667" r="25.667" fill="none" transform="translate(2.334 2.333)"/>
        <g id="그룹_43295" transform="translate(18.667 9.333)">
            <g id="ico" transform="translate(1.867 1.867)">
                <path id="패스_37376" fill="#bbd7fc" d="M28.589 18.188v1.273l.472.447-1.277.638-.553.877v1.119l.794 1.034.563.343v.9a9.374 9.374 0 0 0 0 1.8 11.881 11.881 0 0 0 1.474.855h1.486l.5-.342.4 1.35s.88.311 1.031.334 1.708 0 1.708 0l.706-1.684.365-.513 1.113.855 1.177-.342.763-.877v-2.336l.3-.343.493-.46.663-1.283-.377-.926-1.075-.714h-.763l.763-1.4-.515-1.518-.684-.5h-1.173l-1.049.5-.706-1.675-.895-.525h-1.244l-.6.755-.4.947h-1.987l-1 .5z" transform="translate(-26.585 -14.55)"/>
                <g id="그룹_43291">
                    <path id="패스_37426" d="M-269.806 300.43a.487.487 0 0 0-.564-.282c-.532.156-1.065.282-1.472.376.094-.407.219-.94.376-1.472a.487.487 0 0 0-.282-.564.472.472 0 0 0-.6.219c-.25.467-.564.94-.782 1.283-.219-.345-.5-.814-.782-1.283a.471.471 0 0 0-.6-.219.487.487 0 0 0-.282.564c.156.532.282 1.065.376 1.472-.407-.094-.94-.219-1.472-.376a.487.487 0 0 0-.564.282.471.471 0 0 0 .219.6c.467.25.94.564 1.283.782-.345.219-.814.5-1.283.782a.471.471 0 0 0-.219.595.487.487 0 0 0 .564.282c.532-.156 1.065-.282 1.472-.376-.094.407-.219.94-.376 1.472a.487.487 0 0 0 .282.564.471.471 0 0 0 .6-.219c.25-.467.564-.94.782-1.283.219.345.5.814.782 1.283a.49.49 0 0 0 .407.25.39.39 0 0 0 .188-.031.487.487 0 0 0 .282-.564c-.156-.532-.282-1.065-.376-1.472.407.094.94.219 1.472.376a.487.487 0 0 0 .564-.282.532.532 0 0 0-.219-.595c-.467-.25-.94-.564-1.283-.782.345-.219.814-.5 1.283-.782a.471.471 0 0 0 .224-.6zm-2.786 1.6a.575.575 0 0 0-.311.311.413.413 0 0 0-.439 0 .575.575 0 0 0-.311-.311.413.413 0 0 0 0-.439.575.575 0 0 0 .311-.311.533.533 0 0 0 .439 0 .575.575 0 0 0 .311.311.417.417 0 0 0 0 .435z" class="cls-6" transform="translate(280.561 -294.341)"/>
                    <path id="패스_37427" d="M-266.793 300.634a2.6 2.6 0 0 0-1.752-2.393 2.513 2.513 0 0 0 .135-1.85 2.519 2.519 0 0 0-1.243-1.491 2.531 2.531 0 0 0-2.275-.041 2.494 2.494 0 0 0-1.194-1.4 2.5 2.5 0 0 0-1.914-.186 2.506 2.506 0 0 0-1.653 1.615 2.566 2.566 0 0 0-2.886.494 2.5 2.5 0 0 0-.462 2.858 2.524 2.524 0 0 0-1.4 1.22 2.524 2.524 0 0 0-.17 1.937 2.544 2.544 0 0 0 1.573 1.631 2.517 2.517 0 0 0-.135 1.851 2.522 2.522 0 0 0 1.242 1.491 2.539 2.539 0 0 0 2.277.04 2.546 2.546 0 0 0 2.4 1.691 2.56 2.56 0 0 0 .761-.117 2.547 2.547 0 0 0 1.631-1.574 2.514 2.514 0 0 0 1.851.135 2.52 2.52 0 0 0 1.491-1.242 2.533 2.533 0 0 0 .04-2.276 2.532 2.532 0 0 0 1.683-2.393zm-2.667 1.427a.557.557 0 0 0-.581.325.517.517 0 0 0 .171.652.2.2 0 0 0 .04.032l.022.03a1.418 1.418 0 0 1 .392 1.02 1.423 1.423 0 0 1-.444 1 1.428 1.428 0 0 1-1.965 0c0-.005-.009-.012-.014-.019a.123.123 0 0 0-.062-.058.608.608 0 0 0-.638-.157.554.554 0 0 0-.327.572v.094a1.429 1.429 0 0 1-1.423 1.425 1.44 1.44 0 0 1-1.426-1.426v-.084a.559.559 0 0 0-.327-.582.467.467 0 0 0-.184-.038.24.24 0 0 0-.033 0h-.013a.511.511 0 0 0-.419.212.192.192 0 0 0-.032.04l-.031.023a1.431 1.431 0 0 1-2.02 0 1.431 1.431 0 0 1 0-2.021.158.158 0 0 1 .019-.014.13.13 0 0 0 .058-.061.606.606 0 0 0 .157-.638.554.554 0 0 0-.572-.327h-.093a1.428 1.428 0 0 1-1.424-1.425 1.437 1.437 0 0 1 1.424-1.426h.086a.565.565 0 0 0 .576-.326.518.518 0 0 0-.171-.652.186.186 0 0 0-.04-.032l-.023-.031a1.431 1.431 0 0 1 0-2.021 1.431 1.431 0 0 1 2.021 0 .2.2 0 0 1 .014.019.128.128 0 0 0 .062.059.6.6 0 0 0 .638.156.553.553 0 0 0 .327-.572v-.093a1.429 1.429 0 0 1 1.424-1.426 1.439 1.439 0 0 1 1.426 1.426v.084a.557.557 0 0 0 .326.581.519.519 0 0 0 .652-.172.214.214 0 0 0 .032-.04l.031-.023a1.431 1.431 0 0 1 2.02 0 1.42 1.42 0 0 1 .419 1.01 1.424 1.424 0 0 1-.418 1.01.152.152 0 0 1-.02.013.134.134 0 0 0-.058.062.606.606 0 0 0-.156.638.552.552 0 0 0 .572.327h.094a1.427 1.427 0 0 1 1.422 1.425 1.439 1.439 0 0 1-1.426 1.426z" class="cls-6" transform="translate(281.727 -293.166)"/>
                </g>
            </g>
        </g>
    </g>
    <path id="패스_35528" fill="url(#linear-gradient)" d="M362.767 275.549a25.667 25.667 0 1 1 25.667-25.667 25.7 25.7 0 0 1-25.667 25.667zm0-50.556a24.889 24.889 0 1 0 24.889 24.889 24.917 24.917 0 0 0-24.889-24.888z" transform="translate(-334.766 -221.883)"/>
</svg>
