<svg xmlns="http://www.w3.org/2000/svg" id="img_mypage_lite_48" width="48" height="48" viewBox="0 0 48 48">
    <defs>
        <linearGradient id="linear-gradient" x1=".933" x2=".067" y1=".75" y2=".25" gradientUnits="objectBoundingBox">
            <stop offset="0" stop-color="#ffe576"/>
            <stop offset="1" stop-color="#fff8e0"/>
        </linearGradient>
        <style>
            .cls-6{fill:#a16912}
        </style>
    </defs>
    <path id="패스_34288" fill="#ffda3e" d="M24 0A24 24 0 1 1 0 24 24 24 0 0 1 24 0z"/>
    <text id="LITE" fill="#a16912" font-family="NotoSansCJKkr-Bold, Noto Sans CJK KR" font-size="9px" font-weight="700" letter-spacing="-0.024em" transform="translate(24 34)">
        <tspan x="-9.338" y="0">LITE</tspan>
    </text>
    <path id="패스_34291" fill="url(#linear-gradient)" d="M260.379-214.294a22.025 22.025 0 0 1-22-22 22.025 22.025 0 0 1 22-22 22.024 22.024 0 0 1 22 22 22.024 22.024 0 0 1-22 22zm0-43.2a21.224 21.224 0 0 0-21.2 21.2 21.223 21.223 0 0 0 21.2 21.2 21.224 21.224 0 0 0 21.2-21.2 21.225 21.225 0 0 0-21.2-21.201z" transform="translate(-236.379 260.295)"/>
    <g id="그룹_43297" transform="translate(16 8)">
        <g id="그룹_43257" transform="translate(2.667 2)">
            <path id="패스_37373" fill="#ffeb98" d="M-13612.568 5935.606l-1.5 1.2.217 1.269-.372 1.868-1.047 1.143-.882 1.187.247 2.046 2.2 1.64 3.114-.778 1.252-1.262 1.276-2.584.265-2.43-.265-1.471-1.276-1.67-2.139-1.2z" opacity="0.605" transform="translate(13616.718 -5934.188)"/>
            <g id="그룹_43292">
                <path id="패스_37429" d="M-228.531 310.094a3.954 3.954 0 0 0-2.9-1.593 3.814 3.814 0 0 0-2.721 1.179 3.88 3.88 0 0 0-.81 1.583 3.238 3.238 0 0 0-.091 1.155 2.041 2.041 0 0 1-.081.857 3.641 3.641 0 0 1-.509 1.027 2.6 2.6 0 0 1-.367.386 2.733 2.733 0 0 0-.462.513 3.42 3.42 0 0 0-.493 1.991 3.78 3.78 0 0 0 1.544 3.028.567.567 0 0 0 .069.043 3.87 3.87 0 0 0 1.827.463 3.565 3.565 0 0 0 .67-.062 5.018 5.018 0 0 0 1.985-.688 7.557 7.557 0 0 0 3.349-6.573 5.181 5.181 0 0 0-1.01-3.309zm-2.957 8.852a3.892 3.892 0 0 1-1.555.534 2.659 2.659 0 0 1-1.707-.253 2.6 2.6 0 0 1-1.02-2.077 2.251 2.251 0 0 1 .3-1.291 1.543 1.543 0 0 1 .261-.277 3.786 3.786 0 0 0 .527-.561 4.824 4.824 0 0 0 .7-1.391 3.225 3.225 0 0 0 .131-1.289 2.067 2.067 0 0 1 .057-.779 2.666 2.666 0 0 1 .535-1.073 2.57 2.57 0 0 1 1.787-.786 2.735 2.735 0 0 1 1.984 1.107 4.027 4.027 0 0 1 .773 2.589 6.43 6.43 0 0 1-2.773 5.547z" class="cls-6" transform="translate(236.976 -308.501)"/>
                <path id="패스_37430" d="M-231.645 313.926a.6.6 0 0 0-.535.659 2.575 2.575 0 0 1-.131 1.121 2.973 2.973 0 0 1-.467.743.6.6 0 0 0 .066.845.594.594 0 0 0 .39.145.6.6 0 0 0 .456-.21 4.252 4.252 0 0 0 .667-1.073 3.806 3.806 0 0 0 .211-1.695.6.6 0 0 0-.657-.535z" class="cls-6" transform="translate(235.625 -310.308)"/>
            </g>
        </g>
    </g>
</svg>
