<svg xmlns="http://www.w3.org/2000/svg" width="56" height="56" viewBox="0 0 56 56">
    <defs>
        <linearGradient id="44p95csj7a" x1=".933" x2=".067" y1=".75" y2=".25" gradientUnits="objectBoundingBox">
            <stop offset="0" stop-color="#4a392b"/>
            <stop offset="1" stop-color="#fdd056"/>
        </linearGradient>
    </defs>
    <g>
        <path fill="#242839" d="M28 0A28 28 0 1 1 0 28 28 28 0 0 1 28 0z"/>
        <g>
            <g fill="#ffd41d">
                <path d="M18.538 15.231a1.615 1.615 0 0 0-1.484 2.252l-2.285.979-1.911-3.44a1.615 1.615 0 1 0-1.562 0l-1.911 3.44-2.285-.98a1.615 1.615 0 1 0-1.484.979 1.655 1.655 0 0 0 .363-.044l1.253 5.429v1.077A1.077 1.077 0 0 0 8.308 26h7.538a1.077 1.077 0 0 0 1.077-1.077v-1.077l1.253-5.429a1.582 1.582 0 0 0 .362.044 1.615 1.615 0 0 0 0-3.231zm-6.462-2.154a.538.538 0 1 1-.538.538.539.539 0 0 1 .539-.538zm-7 3.769a.538.538 0 1 1 .538.538.539.539 0 0 1-.537-.538zm10.769 8.077H8.308v-1.077h7.538zm.22-2.154H8.088l-.946-4.1 1.818.779a1.076 1.076 0 0 0 1.366-.467l1.751-3.151 1.751 3.151a1.076 1.076 0 0 0 1.366.467l1.818-.779zm2.472-5.385a.538.538 0 1 1 .538-.538.539.539 0 0 1-.537.539z" transform="translate(18.667 9.333) translate(1.167 1.944) translate(-4 -12)"/>
                <path d="M3075.51 8519.468l-2.2 3.808-3.015-.95.991 5.651v1.614l3.788.405 4.933-.405.346-2.222 1.282-5.044-3.613.95z" opacity="0.6" transform="translate(18.667 9.333) translate(1.167 1.944) translate(-3067.762 -8516.382)"/>
            </g>
        </g>
        <text fill="#fdd056" font-family="NotoSansCJKkr-Bold, Noto Sans CJK KR" font-size="11px" font-weight="700" letter-spacing="-0.024em" transform="translate(28 41)">
            <tspan x="-8.618" y="0">VIP</tspan>
        </text>
    </g>
    <g transform="translate(2.333 2.333)">
        <circle cx="25.667" cy="25.667" r="25.667" fill="none"/>
        <path fill="url(#44p95csj7a)" d="M264.046-206.961a25.7 25.7 0 0 1-25.667-25.667 25.7 25.7 0 0 1 25.667-25.672 25.7 25.7 0 0 1 25.666 25.667 25.7 25.7 0 0 1-25.666 25.672zm0-50.4a24.762 24.762 0 0 0-24.733 24.734 24.761 24.761 0 0 0 24.733 24.727 24.761 24.761 0 0 0 24.733-24.733 24.762 24.762 0 0 0-24.733-24.729z" transform="translate(-238.379 258.295)"/>
    </g>
</svg>
