<svg xmlns="http://www.w3.org/2000/svg" width="210" height="120" viewBox="0 0 210 120">
    <g>
        <path fill="#bfbfbf" d="M0 0H210V120H0z" transform="translate(-1075.529 -29.516) translate(1075.529 29.516)"/>
        <path fill="#fff" d="M1226.386 116.95c-3.8-5.109-27.773-12.694-28.825-13.549a68.807 68.807 0 0 1-4.636-5.392v-4.971a28.192 28.192 0 0 0 3.265-5.124 23.41 23.41 0 0 0 1.237-5.79c3.949-1.812 4.427-8.125 4.593-11.664.073-1.565-.6-1.841-1.411-1.625a75.728 75.728 0 0 0 2.451-10.35c1.615-9.788-12.24-12.3-12.24-12.3-22.471-15.566-32.378 7.311-31.66 5.975a3.817 3.817 0 0 1 1.066-1.168l-1.066 1.168s-2.1 6.088-1.221 8.451c.3.587 1.713 4.737 2.92 8.335-.951-.374-1.817-.25-1.734 1.518.166 3.54.644 9.858 4.6 11.666a23.355 23.355 0 0 0 1.239 5.788 28.124 28.124 0 0 0 3.172 5.007v5.088a68.866 68.866 0 0 1-4.637 5.392c-1.052.855-25.02 8.44-28.825 13.549-4.732 6.352-6.674 20.438-7.688 32.566h107.091c-1.017-12.132-2.959-26.22-7.691-32.57z" transform="translate(-1075.529 -29.516)"/>
    </g>
</svg>
