<svg xmlns="http://www.w3.org/2000/svg" id="img_mypage_smart_48" width="48" height="48" viewBox="0 0 48 48">
    <defs>
        <linearGradient id="linear-gradient" x1=".067" x2=".933" y1=".25" y2=".75" gradientUnits="objectBoundingBox">
            <stop offset="0" stop-color="#d6efff"/>
            <stop offset="1" stop-color="#a8cff0"/>
        </linearGradient>
        <style>
            .cls-6{fill:#2f4580}
        </style>
    </defs>
    <g id="img_mypage_vip">
        <path id="패스_34288" fill="#91bbf4" d="M24 0A24 24 0 1 1 0 24 24 24 0 0 1 24 0z"/>
        <text id="SMART" fill="#2f4580" font-family="NotoSansCJKkr-Bold, Noto Sans CJK KR" font-size="8px" font-weight="700" letter-spacing="-0.024em" transform="translate(24 33.667)">
            <tspan x="-13.244" y="0">SMART</tspan>
        </text>
        <circle id="타원_1460" cx="22" cy="22" r="22" fill="none" transform="translate(2 2)"/>
        <g id="그룹_43295" transform="translate(16 8)">
            <g id="ico" transform="translate(1.6 1.6)">
                <path id="패스_37376" fill="#bbd7fc" d="M28.395 17.743v1.091l.4.383-1.094.547-.474.752v.959l.681.886.482.294v.774a8.035 8.035 0 0 0 0 1.541 10.184 10.184 0 0 0 1.263.733h1.273l.428-.293.344 1.158s.754.267.883.286 1.464 0 1.464 0l.605-1.444.313-.44.954.733 1.008-.293.654-.751v-2l.254-.294.423-.394.568-1.1-.324-.794-.921-.612h-.654l.654-1.2-.436-1.3-.586-.425h-1.001l-.9.425-.605-1.435-.767-.45h-1.066l-.514.647-.344.812h-1.7l-.858.426z" transform="translate(-26.677 -14.625)"/>
                <g id="그룹_43291">
                    <path id="패스_37426" d="M-270.759 300.148a.417.417 0 0 0-.483-.241c-.456.133-.913.241-1.261.322.081-.349.188-.805.322-1.261a.417.417 0 0 0-.241-.483.4.4 0 0 0-.51.188c-.215.4-.483.805-.671 1.1-.188-.3-.429-.7-.671-1.1a.4.4 0 0 0-.51-.188.417.417 0 0 0-.241.483c.133.456.241.913.322 1.261-.349-.081-.805-.188-1.261-.322a.418.418 0 0 0-.483.241.4.4 0 0 0 .188.51c.4.215.805.483 1.1.671-.3.188-.7.429-1.1.671a.4.4 0 0 0-.188.51.418.418 0 0 0 .483.241c.456-.133.913-.241 1.261-.322-.081.349-.188.805-.322 1.261a.417.417 0 0 0 .241.483.4.4 0 0 0 .51-.188c.215-.4.483-.805.671-1.1.188.3.429.7.671 1.1a.42.42 0 0 0 .349.215.334.334 0 0 0 .161-.027.417.417 0 0 0 .241-.483c-.133-.456-.241-.913-.322-1.261.349.081.805.188 1.261.322a.417.417 0 0 0 .483-.241.456.456 0 0 0-.188-.51c-.4-.215-.805-.483-1.1-.671.3-.188.7-.429 1.1-.671a.4.4 0 0 0 .188-.51zm-2.388 1.368a.493.493 0 0 0-.267.267.354.354 0 0 0-.376 0 .493.493 0 0 0-.267-.267.354.354 0 0 0 0-.376.493.493 0 0 0 .267-.267.457.457 0 0 0 .376 0 .493.493 0 0 0 .267.267.357.357 0 0 0 0 .376z" class="cls-6" transform="translate(279.978 -294.929)"/>
                    <path id="패스_37427" d="M-268.926 299.567a2.225 2.225 0 0 0-1.5-2.051 2.154 2.154 0 0 0 .116-1.585 2.16 2.16 0 0 0-1.065-1.278 2.17 2.17 0 0 0-1.95-.035 2.138 2.138 0 0 0-1.023-1.2 2.143 2.143 0 0 0-1.641-.159 2.148 2.148 0 0 0-1.417 1.384 2.2 2.2 0 0 0-2.473.423 2.141 2.141 0 0 0-.4 2.45 2.163 2.163 0 0 0-1.2 1.045 2.163 2.163 0 0 0-.146 1.66 2.181 2.181 0 0 0 1.349 1.4 2.158 2.158 0 0 0-.116 1.587 2.162 2.162 0 0 0 1.065 1.278 2.176 2.176 0 0 0 1.951.035 2.182 2.182 0 0 0 2.053 1.449 2.195 2.195 0 0 0 .652-.1 2.183 2.183 0 0 0 1.4-1.349 2.155 2.155 0 0 0 1.587.116 2.16 2.16 0 0 0 1.278-1.065 2.171 2.171 0 0 0 .035-1.951 2.17 2.17 0 0 0 1.445-2.054zm-2.286 1.223a.478.478 0 0 0-.5.279.443.443 0 0 0 .147.559.176.176 0 0 0 .034.027l.019.026a1.215 1.215 0 0 1 .336.875 1.219 1.219 0 0 1-.381.856 1.224 1.224 0 0 1-1.685 0l-.012-.017a.106.106 0 0 0-.053-.05.521.521 0 0 0-.547-.135.475.475 0 0 0-.281.49v.081a1.225 1.225 0 0 1-1.217 1.219 1.234 1.234 0 0 1-1.223-1.222v-.072a.479.479 0 0 0-.281-.5.4.4 0 0 0-.157-.033h-.04a.438.438 0 0 0-.359.181.163.163 0 0 0-.027.035l-.027.019a1.227 1.227 0 0 1-1.731 0 1.226 1.226 0 0 1 0-1.732.132.132 0 0 1 .017-.012.111.111 0 0 0 .049-.053.519.519 0 0 0 .135-.547.475.475 0 0 0-.491-.28h-.08a1.224 1.224 0 0 1-1.221-1.221 1.232 1.232 0 0 1 1.221-1.222h.073a.485.485 0 0 0 .494-.279.444.444 0 0 0-.147-.559.16.16 0 0 0-.035-.027l-.019-.027a1.227 1.227 0 0 1 0-1.733 1.226 1.226 0 0 1 1.732 0l.012.017a.109.109 0 0 0 .053.051.518.518 0 0 0 .547.134.474.474 0 0 0 .28-.49v-.08a1.225 1.225 0 0 1 1.221-1.222 1.234 1.234 0 0 1 1.222 1.222v.072a.477.477 0 0 0 .279.5.445.445 0 0 0 .559-.147.184.184 0 0 0 .027-.035l.027-.019a1.227 1.227 0 0 1 1.731 0 1.217 1.217 0 0 1 .359.866 1.221 1.221 0 0 1-.358.866l-.017.011a.115.115 0 0 0-.05.053.519.519 0 0 0-.134.547.473.473 0 0 0 .49.281h.081a1.224 1.224 0 0 1 1.219 1.221 1.233 1.233 0 0 1-1.222 1.222z" class="cls-6" transform="translate(281.727 -293.166)"/>
                </g>
            </g>
        </g>
    </g>
    <path id="패스_35528" fill="url(#linear-gradient)" d="M359.1 268.216a22 22 0 1 1 22-22 22.025 22.025 0 0 1-22 22zm0-43.333a21.333 21.333 0 1 0 21.333 21.333 21.357 21.357 0 0 0-21.333-21.333z" transform="translate(-335.1 -222.216)"/>
</svg>
