<svg xmlns="http://www.w3.org/2000/svg" width="48" height="48" viewBox="0 0 48 48">
    <defs>
        <linearGradient id="pto1ii955a" x1=".933" x2=".067" y1=".75" y2=".25" gradientUnits="objectBoundingBox">
            <stop offset="0" stop-color="#333"/>
            <stop offset="1" stop-color="#888"/>
        </linearGradient>
    </defs>
    <path d="M24 0A24 24 0 1 1 0 24 24 24 0 0 1 24 0z"/>
    <text fill="#888" font-family="NotoSansCJKkr-Bold, Noto Sans CJK KR" font-size="7px" font-weight="700" letter-spacing="-0.024em" transform="translate(24 30.667)">
        <tspan x="-10.951" y="0">BLACK</tspan><tspan x="-7.214" y="7">LIST</tspan>
    </text>
    <path fill="url(#pto1ii955a)" d="M260.379-214.294a22.025 22.025 0 0 1-22-22 22.025 22.025 0 0 1 22-22 22.024 22.024 0 0 1 22 22 22.024 22.024 0 0 1-22 22zm0-43.2a21.224 21.224 0 0 0-21.2 21.2 21.223 21.223 0 0 0 21.2 21.2 21.224 21.224 0 0 0 21.2-21.2 21.225 21.225 0 0 0-21.2-21.201z" transform="translate(-236.379 260.295)"/>
    <g>
        <g opacity="0.9">
            <g>
                <path fill="#fff" d="M-2762.192 4708.5v1.835l.189 2.4.657 1.814 1.823 1.824 2.015 1.033a5.951 5.951 0 0 0 1.414-.45c.216-.2 1.767-1.317 1.767-1.317l1.813-2.9-.247-1.648v-2.591l-1.566-.519-1.529-.672-1.378-.768-1.206.768-1.774.905z" opacity="0.2" transform="translate(16 8) translate(2.796 1.915) translate(2762.66 -4705.938)"/>
                <path fill="#a8a8a8" fill-rule="evenodd" d="M6.876.588a1.024 1.024 0 0 1 .831 0 8.362 8.362 0 0 0 4.265 1.652c.419.018.6.22.6.643 0 .267.018 3.066 0 4.076a4.5 4.5 0 0 1-.128 1.083 4.947 4.947 0 0 1-1.367 2.369 16.447 16.447 0 0 1-3.8 2.258A17.048 17.048 0 0 1 3.5 10.411a4.947 4.947 0 0 1-1.364-2.369 4.5 4.5 0 0 1-.128-1.083c-.018-1.01 0-3.809 0-4.076 0-.422.182-.624.6-.643A8.362 8.362 0 0 0 6.876.588zm1.164 5.84l1.31-1.311a.529.529 0 0 0-.75-.748L7.291 5.68 5.98 4.369a.529.529 0 0 0-.748.748l1.311 1.311-1.311 1.311a.529.529 0 0 0 .748.748l1.311-1.311L8.6 8.487a.529.529 0 0 0 .748-.748L8.039 6.428zM6.927 1.82A9.645 9.645 0 0 1 3.79 3.143c-.374.079-.725.112-.725.112s-.005 3.319 0 3.7a3.463 3.463 0 0 0 .1.839 3.9 3.9 0 0 0 1.089 1.871c.316.318 3.037 1.835 3.037 1.835s2.72-1.513 3.037-1.831a3.789 3.789 0 0 0 1.2-2.725V3.265s-.241-.029-.355-.047a9.366 9.366 0 0 1-3.5-1.384 3.4 3.4 0 0 1-.373-.277s-.195.149-.376.262z" transform="translate(16 8) translate(2.796 1.915) translate(-2 -.5)"/>
            </g>
        </g>
    </g>
</svg>
